<svg xmlns="http://www.w3.org/2000/svg" xmlns:xlink="http://www.w3.org/1999/xlink" width="840" height="581.04"><rect width="840" height="581.04" class="a" rx="5" ry="5"/><svg x="0%" y="0%"><circle cx="20" cy="20" r="6" class="b"/><circle cx="40" cy="20" r="6" class="c"/><circle cx="60" cy="20" r="6" class="d"/></svg><svg xmlns="http://www.w3.org/2000/svg" xmlns:xlink="http://www.w3.org/1999/xlink" width="800" height="521.04" x="15" y="50" viewBox="0 0 80 52.104"><style>@keyframes l{0%{transform:translateX(0)}3.1%{transform:translateX(-80px)}6.6%{transform:translateX(-160px)}7%{transform:translateX(-2560px)}7.1%{transform:translateX(-3280px)}8%{transform:translateX(-3680px)}}.e,.f,.g{font-family:&apos;Courier New&apos; Roboto,Helvetica,Arial,sans-serif,&apos;Apple Color Emoji&apos;,&apos;Segoe UI Emoji&apos;!important}.a{fill:#232323}.b{fill:#ff5f58}.c{fill:#ffbd2e}.d{fill:#18c132}.f{fill:#66c2cd}.g,.h,.i,.j{white-space:pre}.h{fill:#7ee7e9}.i{fill:#00c6ff}.j{fill:#a0a0a0}.k{fill:transparent}.m{animation-duration:5.435773s;animation-iteration-count:infinite;animation-name:l;animation-timing-function:steps(1,end)}</style><g class="e" font-family="'Courier New',Monaco, Consolas, Menlo, 'Bitstream Vera Sans Mono', 'Powerline Symbols', monospace" font-size="1.67"><defs><symbol id="1"><rect width="6" height="2.171" x="0" y="0" class="f"/><text x="0" y="1.67" class="g">INFO</text><text x="7.014" y="1.67" class="h">Chart</text><text x="13.026" y="1.67" class="h">example</text><text x="21.042" y="1.67" class="h">with</text><text x="26.052" y="1.67" class="h">negative</text><text x="35.07" y="1.67" class="h">only</text><text x="40.08" y="1.67" class="h">values</text><text x="47.094" y="1.67" class="h">(bars</text><text x="53.106" y="1.67" class="h">use</text><text x="57.114" y="1.67" class="h">100%</text><text x="62.124" y="1.67" class="h">of</text><text x="65.13" y="1.67" class="h">chart</text><text x="71.142" y="1.67" class="h">area)</text></symbol><symbol id="2"><text x="2.004" y="1.67" class="i">██</text><text x="9.018" y="1.67" class="i">██</text><text x="20.04" y="1.67" class="i">██</text></symbol><symbol id="3"><text x="2.004" y="1.67" class="i">██</text><text x="20.04" y="1.67" class="i">██</text></symbol><symbol id="4"><text x="20.04" y="1.67" class="i">██</text></symbol><symbol id="5"><text x="2.004" y="1.67" class="j">-5</text><text x="9.018" y="1.67" class="j">-3</text><text x="20.04" y="1.67" class="j">-7</text></symbol><symbol id="6"><text x="0" y="1.67" class="h">Bar</text><text x="4.008" y="1.67" class="h">1</text><text x="7.014" y="1.67" class="h">Bar</text><text x="11.022" y="1.67" class="h">2</text><text x="14.028" y="1.67" class="h">Longer</text><text x="21.042" y="1.67" class="h">Label</text></symbol><symbol id="7"><text x="0" y="1.67" class="h">Bar</text><text x="4.008" y="1.67" class="h">1</text><text x="29.058" y="1.67" class="i">█████████████████████████████████████</text><text x="67.134" y="1.67" class="j">-5</text></symbol><symbol id="8"><text x="0" y="1.67" class="h">Bar</text><text x="4.008" y="1.67" class="h">2</text><text x="44.088" y="1.67" class="i">██████████████████████</text><text x="67.134" y="1.67" class="j">-3</text></symbol><symbol id="9"><text x="0" y="1.67" class="h">Longer</text><text x="7.014" y="1.67" class="h">Label</text><text x="13.026" y="1.67" class="i">█████████████████████████████████████████████████████</text><text x="67.134" y="1.67" class="j">-7</text></symbol><symbol id="a"><rect width="80" height="24" x="0" y="0" class="k"/></symbol></defs><rect width="80" height="52.104" class="a"/><g class="m"><svg width="3840" x="0" y="0"><svg x="0"><use xlink:href="#a"/></svg><svg x="80"><use xlink:href="#a"/><use y="0" xlink:href="#1"/></svg><svg x="160"><use xlink:href="#a"/><use y="0" xlink:href="#1"/><use y="2.171" xlink:href="#2"/></svg><svg x="240"><use xlink:href="#a"/><use y="0" xlink:href="#1"/><use y="2.171" xlink:href="#2"/></svg><svg x="320"><use xlink:href="#a"/><use y="0" xlink:href="#1"/><use y="2.171" xlink:href="#2"/><use y="4.342" xlink:href="#2"/></svg><svg x="400"><use xlink:href="#a"/><use y="0" xlink:href="#1"/><use y="2.171" xlink:href="#2"/><use y="4.342" xlink:href="#2"/></svg><svg x="480"><use xlink:href="#a"/><use y="0" xlink:href="#1"/><use y="2.171" xlink:href="#2"/><use y="4.342" xlink:href="#2"/><use y="6.513" xlink:href="#2"/></svg><svg x="560"><use xlink:href="#a"/><use y="0" xlink:href="#1"/><use y="2.171" xlink:href="#2"/><use y="4.342" xlink:href="#2"/><use y="6.513" xlink:href="#2"/></svg><svg x="640"><use xlink:href="#a"/><use y="0" xlink:href="#1"/><use y="2.171" xlink:href="#2"/><use y="4.342" xlink:href="#2"/><use y="6.513" xlink:href="#2"/><use y="8.684" xlink:href="#2"/></svg><svg x="720"><use xlink:href="#a"/><use y="0" xlink:href="#1"/><use y="2.171" xlink:href="#2"/><use y="4.342" xlink:href="#2"/><use y="6.513" xlink:href="#2"/><use y="8.684" xlink:href="#2"/></svg><svg x="800"><use xlink:href="#a"/><use y="0" xlink:href="#1"/><use y="2.171" xlink:href="#2"/><use y="4.342" xlink:href="#2"/><use y="6.513" xlink:href="#2"/><use y="8.684" xlink:href="#2"/><use y="10.855" xlink:href="#2"/></svg><svg x="880"><use xlink:href="#a"/><use y="0" xlink:href="#1"/><use y="2.171" xlink:href="#2"/><use y="4.342" xlink:href="#2"/><use y="6.513" xlink:href="#2"/><use y="8.684" xlink:href="#2"/><use y="10.855" xlink:href="#2"/></svg><svg x="960"><use xlink:href="#a"/><use y="0" xlink:href="#1"/><use y="2.171" xlink:href="#2"/><use y="4.342" xlink:href="#2"/><use y="6.513" xlink:href="#2"/><use y="8.684" xlink:href="#2"/><use y="10.855" xlink:href="#2"/><use y="13.026" xlink:href="#2"/></svg><svg x="1040"><use xlink:href="#a"/><use y="0" xlink:href="#1"/><use y="2.171" xlink:href="#2"/><use y="4.342" xlink:href="#2"/><use y="6.513" xlink:href="#2"/><use y="8.684" xlink:href="#2"/><use y="10.855" xlink:href="#2"/><use y="13.026" xlink:href="#2"/></svg><svg x="1120"><use xlink:href="#a"/><use y="0" xlink:href="#1"/><use y="2.171" xlink:href="#2"/><use y="4.342" xlink:href="#2"/><use y="6.513" xlink:href="#2"/><use y="8.684" xlink:href="#2"/><use y="10.855" xlink:href="#2"/><use y="13.026" xlink:href="#2"/><use y="15.197" xlink:href="#3"/></svg><svg x="1200"><use xlink:href="#a"/><use y="0" xlink:href="#1"/><use y="2.171" xlink:href="#2"/><use y="4.342" xlink:href="#2"/><use y="6.513" xlink:href="#2"/><use y="8.684" xlink:href="#2"/><use y="10.855" xlink:href="#2"/><use y="13.026" xlink:href="#2"/><use y="15.197" xlink:href="#3"/></svg><svg x="1280"><use xlink:href="#a"/><use y="0" xlink:href="#1"/><use y="2.171" xlink:href="#2"/><use y="4.342" xlink:href="#2"/><use y="6.513" xlink:href="#2"/><use y="8.684" xlink:href="#2"/><use y="10.855" xlink:href="#2"/><use y="13.026" xlink:href="#2"/><use y="15.197" xlink:href="#3"/><use y="17.368" xlink:href="#3"/></svg><svg x="1360"><use xlink:href="#a"/><use y="0" xlink:href="#1"/><use y="2.171" xlink:href="#2"/><use y="4.342" xlink:href="#2"/><use y="6.513" xlink:href="#2"/><use y="8.684" xlink:href="#2"/><use y="10.855" xlink:href="#2"/><use y="13.026" xlink:href="#2"/><use y="15.197" xlink:href="#3"/><use y="17.368" xlink:href="#3"/></svg><svg x="1440"><use xlink:href="#a"/><use y="0" xlink:href="#1"/><use y="2.171" xlink:href="#2"/><use y="4.342" xlink:href="#2"/><use y="6.513" xlink:href="#2"/><use y="8.684" xlink:href="#2"/><use y="10.855" xlink:href="#2"/><use y="13.026" xlink:href="#2"/><use y="15.197" xlink:href="#3"/><use y="17.368" xlink:href="#3"/><use y="19.539" xlink:href="#3"/></svg><svg x="1520"><use xlink:href="#a"/><use y="0" xlink:href="#1"/><use y="2.171" xlink:href="#2"/><use y="4.342" xlink:href="#2"/><use y="6.513" xlink:href="#2"/><use y="8.684" xlink:href="#2"/><use y="10.855" xlink:href="#2"/><use y="13.026" xlink:href="#2"/><use y="15.197" xlink:href="#3"/><use y="17.368" xlink:href="#3"/><use y="19.539" xlink:href="#3"/></svg><svg x="1600"><use xlink:href="#a"/><use y="0" xlink:href="#1"/><use y="2.171" xlink:href="#2"/><use y="4.342" xlink:href="#2"/><use y="6.513" xlink:href="#2"/><use y="8.684" xlink:href="#2"/><use y="10.855" xlink:href="#2"/><use y="13.026" xlink:href="#2"/><use y="15.197" xlink:href="#3"/><use y="17.368" xlink:href="#3"/><use y="19.539" xlink:href="#3"/><use y="21.71" xlink:href="#3"/></svg><svg x="1680"><use xlink:href="#a"/><use y="0" xlink:href="#1"/><use y="2.171" xlink:href="#2"/><use y="4.342" xlink:href="#2"/><use y="6.513" xlink:href="#2"/><use y="8.684" xlink:href="#2"/><use y="10.855" xlink:href="#2"/><use y="13.026" xlink:href="#2"/><use y="15.197" xlink:href="#3"/><use y="17.368" xlink:href="#3"/><use y="19.539" xlink:href="#3"/><use y="21.71" xlink:href="#3"/></svg><svg x="1760"><use xlink:href="#a"/><use y="0" xlink:href="#1"/><use y="2.171" xlink:href="#2"/><use y="4.342" xlink:href="#2"/><use y="6.513" xlink:href="#2"/><use y="8.684" xlink:href="#2"/><use y="10.855" xlink:href="#2"/><use y="13.026" xlink:href="#2"/><use y="15.197" xlink:href="#3"/><use y="17.368" xlink:href="#3"/><use y="19.539" xlink:href="#3"/><use y="21.71" xlink:href="#3"/><use y="23.881" xlink:href="#3"/></svg><svg x="1840"><use xlink:href="#a"/><use y="0" xlink:href="#1"/><use y="2.171" xlink:href="#2"/><use y="4.342" xlink:href="#2"/><use y="6.513" xlink:href="#2"/><use y="8.684" xlink:href="#2"/><use y="10.855" xlink:href="#2"/><use y="13.026" xlink:href="#2"/><use y="15.197" xlink:href="#3"/><use y="17.368" xlink:href="#3"/><use y="19.539" xlink:href="#3"/><use y="21.71" xlink:href="#3"/><use y="23.881" xlink:href="#3"/></svg><svg x="1920"><use xlink:href="#a"/><use y="0" xlink:href="#1"/><use y="2.171" xlink:href="#2"/><use y="4.342" xlink:href="#2"/><use y="6.513" xlink:href="#2"/><use y="8.684" xlink:href="#2"/><use y="10.855" xlink:href="#2"/><use y="13.026" xlink:href="#2"/><use y="15.197" xlink:href="#3"/><use y="17.368" xlink:href="#3"/><use y="19.539" xlink:href="#3"/><use y="21.71" xlink:href="#3"/><use y="23.881" xlink:href="#3"/><use y="26.052" xlink:href="#4"/></svg><svg x="2000"><use xlink:href="#a"/><use y="0" xlink:href="#1"/><use y="2.171" xlink:href="#2"/><use y="4.342" xlink:href="#2"/><use y="6.513" xlink:href="#2"/><use y="8.684" xlink:href="#2"/><use y="10.855" xlink:href="#2"/><use y="13.026" xlink:href="#2"/><use y="15.197" xlink:href="#3"/><use y="17.368" xlink:href="#3"/><use y="19.539" xlink:href="#3"/><use y="21.71" xlink:href="#3"/><use y="23.881" xlink:href="#3"/><use y="26.052" xlink:href="#4"/></svg><svg x="2080"><use xlink:href="#a"/><use y="0" xlink:href="#1"/><use y="2.171" xlink:href="#2"/><use y="4.342" xlink:href="#2"/><use y="6.513" xlink:href="#2"/><use y="8.684" xlink:href="#2"/><use y="10.855" xlink:href="#2"/><use y="13.026" xlink:href="#2"/><use y="15.197" xlink:href="#3"/><use y="17.368" xlink:href="#3"/><use y="19.539" xlink:href="#3"/><use y="21.71" xlink:href="#3"/><use y="23.881" xlink:href="#3"/><use y="26.052" xlink:href="#4"/><use y="28.223" xlink:href="#4"/></svg><svg x="2160"><use xlink:href="#a"/><use y="0" xlink:href="#1"/><use y="2.171" xlink:href="#2"/><use y="4.342" xlink:href="#2"/><use y="6.513" xlink:href="#2"/><use y="8.684" xlink:href="#2"/><use y="10.855" xlink:href="#2"/><use y="13.026" xlink:href="#2"/><use y="15.197" xlink:href="#3"/><use y="17.368" xlink:href="#3"/><use y="19.539" xlink:href="#3"/><use y="21.71" xlink:href="#3"/><use y="23.881" xlink:href="#3"/><use y="26.052" xlink:href="#4"/><use y="28.223" xlink:href="#4"/></svg><svg x="2240"><use xlink:href="#a"/><use y="0" xlink:href="#1"/><use y="2.171" xlink:href="#2"/><use y="4.342" xlink:href="#2"/><use y="6.513" xlink:href="#2"/><use y="8.684" xlink:href="#2"/><use y="10.855" xlink:href="#2"/><use y="13.026" xlink:href="#2"/><use y="15.197" xlink:href="#3"/><use y="17.368" xlink:href="#3"/><use y="19.539" xlink:href="#3"/><use y="21.71" xlink:href="#3"/><use y="23.881" xlink:href="#3"/><use y="26.052" xlink:href="#4"/><use y="28.223" xlink:href="#4"/><use y="30.394" xlink:href="#4"/></svg><svg x="2320"><use xlink:href="#a"/><use y="0" xlink:href="#1"/><use y="2.171" xlink:href="#2"/><use y="4.342" xlink:href="#2"/><use y="6.513" xlink:href="#2"/><use y="8.684" xlink:href="#2"/><use y="10.855" xlink:href="#2"/><use y="13.026" xlink:href="#2"/><use y="15.197" xlink:href="#3"/><use y="17.368" xlink:href="#3"/><use y="19.539" xlink:href="#3"/><use y="21.71" xlink:href="#3"/><use y="23.881" xlink:href="#3"/><use y="26.052" xlink:href="#4"/><use y="28.223" xlink:href="#4"/><use y="30.394" xlink:href="#4"/></svg><svg x="2400"><use xlink:href="#a"/><use y="0" xlink:href="#1"/><use y="2.171" xlink:href="#2"/><use y="4.342" xlink:href="#2"/><use y="6.513" xlink:href="#2"/><use y="8.684" xlink:href="#2"/><use y="10.855" xlink:href="#2"/><use y="13.026" xlink:href="#2"/><use y="15.197" xlink:href="#3"/><use y="17.368" xlink:href="#3"/><use y="19.539" xlink:href="#3"/><use y="21.71" xlink:href="#3"/><use y="23.881" xlink:href="#3"/><use y="26.052" xlink:href="#4"/><use y="28.223" xlink:href="#4"/><use y="30.394" xlink:href="#4"/><use y="32.565" xlink:href="#4"/></svg><svg x="2480"><use xlink:href="#a"/><use y="0" xlink:href="#1"/><use y="2.171" xlink:href="#2"/><use y="4.342" xlink:href="#2"/><use y="6.513" xlink:href="#2"/><use y="8.684" xlink:href="#2"/><use y="10.855" xlink:href="#2"/><use y="13.026" xlink:href="#2"/><use y="15.197" xlink:href="#3"/><use y="17.368" xlink:href="#3"/><use y="19.539" xlink:href="#3"/><use y="21.71" xlink:href="#3"/><use y="23.881" xlink:href="#3"/><use y="26.052" xlink:href="#4"/><use y="28.223" xlink:href="#4"/><use y="30.394" xlink:href="#4"/><use y="32.565" xlink:href="#4"/></svg><svg x="2560"><use xlink:href="#a"/><use y="0" xlink:href="#1"/><use y="2.171" xlink:href="#2"/><use y="4.342" xlink:href="#2"/><use y="6.513" xlink:href="#2"/><use y="8.684" xlink:href="#2"/><use y="10.855" xlink:href="#2"/><use y="13.026" xlink:href="#2"/><use y="15.197" xlink:href="#3"/><use y="17.368" xlink:href="#3"/><use y="19.539" xlink:href="#3"/><use y="21.71" xlink:href="#3"/><use y="23.881" xlink:href="#3"/><use y="26.052" xlink:href="#4"/><use y="28.223" xlink:href="#4"/><use y="30.394" xlink:href="#4"/><use y="32.565" xlink:href="#4"/><use y="34.736" xlink:href="#4"/></svg><svg x="2640"><use xlink:href="#a"/><use y="0" xlink:href="#1"/><use y="2.171" xlink:href="#2"/><use y="4.342" xlink:href="#2"/><use y="6.513" xlink:href="#2"/><use y="8.684" xlink:href="#2"/><use y="10.855" xlink:href="#2"/><use y="13.026" xlink:href="#2"/><use y="15.197" xlink:href="#3"/><use y="17.368" xlink:href="#3"/><use y="19.539" xlink:href="#3"/><use y="21.71" xlink:href="#3"/><use y="23.881" xlink:href="#3"/><use y="26.052" xlink:href="#4"/><use y="28.223" xlink:href="#4"/><use y="30.394" xlink:href="#4"/><use y="32.565" xlink:href="#4"/><use y="34.736" xlink:href="#4"/></svg><svg x="2720"><use xlink:href="#a"/><use y="0" xlink:href="#1"/><use y="2.171" xlink:href="#2"/><use y="4.342" xlink:href="#2"/><use y="6.513" xlink:href="#2"/><use y="8.684" xlink:href="#2"/><use y="10.855" xlink:href="#2"/><use y="13.026" xlink:href="#2"/><use y="15.197" xlink:href="#3"/><use y="17.368" xlink:href="#3"/><use y="19.539" xlink:href="#3"/><use y="21.71" xlink:href="#3"/><use y="23.881" xlink:href="#3"/><use y="26.052" xlink:href="#4"/><use y="28.223" xlink:href="#4"/><use y="30.394" xlink:href="#4"/><use y="32.565" xlink:href="#4"/><use y="34.736" xlink:href="#4"/><use y="36.907" xlink:href="#5"/></svg><svg x="2800"><use xlink:href="#a"/><use y="0" xlink:href="#1"/><use y="2.171" xlink:href="#2"/><use y="4.342" xlink:href="#2"/><use y="6.513" xlink:href="#2"/><use y="8.684" xlink:href="#2"/><use y="10.855" xlink:href="#2"/><use y="13.026" xlink:href="#2"/><use y="15.197" xlink:href="#3"/><use y="17.368" xlink:href="#3"/><use y="19.539" xlink:href="#3"/><use y="21.71" xlink:href="#3"/><use y="23.881" xlink:href="#3"/><use y="26.052" xlink:href="#4"/><use y="28.223" xlink:href="#4"/><use y="30.394" xlink:href="#4"/><use y="32.565" xlink:href="#4"/><use y="34.736" xlink:href="#4"/><use y="36.907" xlink:href="#5"/></svg><svg x="2880"><use xlink:href="#a"/><use y="0" xlink:href="#1"/><use y="2.171" xlink:href="#2"/><use y="4.342" xlink:href="#2"/><use y="6.513" xlink:href="#2"/><use y="8.684" xlink:href="#2"/><use y="10.855" xlink:href="#2"/><use y="13.026" xlink:href="#2"/><use y="15.197" xlink:href="#3"/><use y="17.368" xlink:href="#3"/><use y="19.539" xlink:href="#3"/><use y="21.71" xlink:href="#3"/><use y="23.881" xlink:href="#3"/><use y="26.052" xlink:href="#4"/><use y="28.223" xlink:href="#4"/><use y="30.394" xlink:href="#4"/><use y="32.565" xlink:href="#4"/><use y="34.736" xlink:href="#4"/><use y="36.907" xlink:href="#5"/><use y="39.078" xlink:href="#6"/></svg><svg x="2960"><use xlink:href="#a"/><use y="0" xlink:href="#1"/><use y="2.171" xlink:href="#2"/><use y="4.342" xlink:href="#2"/><use y="6.513" xlink:href="#2"/><use y="8.684" xlink:href="#2"/><use y="10.855" xlink:href="#2"/><use y="13.026" xlink:href="#2"/><use y="15.197" xlink:href="#3"/><use y="17.368" xlink:href="#3"/><use y="19.539" xlink:href="#3"/><use y="21.71" xlink:href="#3"/><use y="23.881" xlink:href="#3"/><use y="26.052" xlink:href="#4"/><use y="28.223" xlink:href="#4"/><use y="30.394" xlink:href="#4"/><use y="32.565" xlink:href="#4"/><use y="34.736" xlink:href="#4"/><use y="36.907" xlink:href="#5"/><use y="39.078" xlink:href="#6"/></svg><svg x="3040"><use xlink:href="#a"/><use y="0" xlink:href="#1"/><use y="2.171" xlink:href="#2"/><use y="4.342" xlink:href="#2"/><use y="6.513" xlink:href="#2"/><use y="8.684" xlink:href="#2"/><use y="10.855" xlink:href="#2"/><use y="13.026" xlink:href="#2"/><use y="15.197" xlink:href="#3"/><use y="17.368" xlink:href="#3"/><use y="19.539" xlink:href="#3"/><use y="21.71" xlink:href="#3"/><use y="23.881" xlink:href="#3"/><use y="26.052" xlink:href="#4"/><use y="28.223" xlink:href="#4"/><use y="30.394" xlink:href="#4"/><use y="32.565" xlink:href="#4"/><use y="34.736" xlink:href="#4"/><use y="36.907" xlink:href="#5"/><use y="39.078" xlink:href="#6"/></svg><svg x="3120"><use xlink:href="#a"/><use y="0" xlink:href="#1"/><use y="2.171" xlink:href="#2"/><use y="4.342" xlink:href="#2"/><use y="6.513" xlink:href="#2"/><use y="8.684" xlink:href="#2"/><use y="10.855" xlink:href="#2"/><use y="13.026" xlink:href="#2"/><use y="15.197" xlink:href="#3"/><use y="17.368" xlink:href="#3"/><use y="19.539" xlink:href="#3"/><use y="21.71" xlink:href="#3"/><use y="23.881" xlink:href="#3"/><use y="26.052" xlink:href="#4"/><use y="28.223" xlink:href="#4"/><use y="30.394" xlink:href="#4"/><use y="32.565" xlink:href="#4"/><use y="34.736" xlink:href="#4"/><use y="36.907" xlink:href="#5"/><use y="39.078" xlink:href="#6"/></svg><svg x="3200"><use xlink:href="#a"/><use y="0" xlink:href="#1"/><use y="2.171" xlink:href="#2"/><use y="4.342" xlink:href="#2"/><use y="6.513" xlink:href="#2"/><use y="8.684" xlink:href="#2"/><use y="10.855" xlink:href="#2"/><use y="13.026" xlink:href="#2"/><use y="15.197" xlink:href="#3"/><use y="17.368" xlink:href="#3"/><use y="19.539" xlink:href="#3"/><use y="21.71" xlink:href="#3"/><use y="23.881" xlink:href="#3"/><use y="26.052" xlink:href="#4"/><use y="28.223" xlink:href="#4"/><use y="30.394" xlink:href="#4"/><use y="32.565" xlink:href="#4"/><use y="34.736" xlink:href="#4"/><use y="36.907" xlink:href="#5"/><use y="39.078" xlink:href="#6"/></svg><svg x="3280"><use xlink:href="#a"/><use y="0" xlink:href="#1"/><use y="2.171" xlink:href="#2"/><use y="4.342" xlink:href="#2"/><use y="6.513" xlink:href="#2"/><use y="8.684" xlink:href="#2"/><use y="10.855" xlink:href="#2"/><use y="13.026" xlink:href="#2"/><use y="15.197" xlink:href="#3"/><use y="17.368" xlink:href="#3"/><use y="19.539" xlink:href="#3"/><use y="21.71" xlink:href="#3"/><use y="23.881" xlink:href="#3"/><use y="26.052" xlink:href="#4"/><use y="28.223" xlink:href="#4"/><use y="30.394" xlink:href="#4"/><use y="32.565" xlink:href="#4"/><use y="34.736" xlink:href="#4"/><use y="36.907" xlink:href="#5"/><use y="39.078" xlink:href="#6"/></svg><svg x="3360"><use xlink:href="#a"/><use y="0" xlink:href="#1"/><use y="2.171" xlink:href="#2"/><use y="4.342" xlink:href="#2"/><use y="6.513" xlink:href="#2"/><use y="8.684" xlink:href="#2"/><use y="10.855" xlink:href="#2"/><use y="13.026" xlink:href="#2"/><use y="15.197" xlink:href="#3"/><use y="17.368" xlink:href="#3"/><use y="19.539" xlink:href="#3"/><use y="21.71" xlink:href="#3"/><use y="23.881" xlink:href="#3"/><use y="26.052" xlink:href="#4"/><use y="28.223" xlink:href="#4"/><use y="30.394" xlink:href="#4"/><use y="32.565" xlink:href="#4"/><use y="34.736" xlink:href="#4"/><use y="36.907" xlink:href="#5"/><use y="39.078" xlink:href="#6"/><use y="47.762" xlink:href="#7"/><text x="0" y="51.603" class="h">Bar</text><text x="4.008" y="51.603" class="h">2</text><text x="44.088" y="51.603" class="i">██</text></svg><svg x="3440"><use xlink:href="#a"/><use y="0" xlink:href="#2"/><use y="2.171" xlink:href="#2"/><use y="4.342" xlink:href="#2"/><use y="6.513" xlink:href="#2"/><use y="8.684" xlink:href="#2"/><use y="10.855" xlink:href="#2"/><use y="13.026" xlink:href="#3"/><use y="15.197" xlink:href="#3"/><use y="17.368" xlink:href="#3"/><use y="19.539" xlink:href="#3"/><use y="21.71" xlink:href="#3"/><use y="23.881" xlink:href="#4"/><use y="26.052" xlink:href="#4"/><use y="28.223" xlink:href="#4"/><use y="30.394" xlink:href="#4"/><use y="32.565" xlink:href="#4"/><use y="34.736" xlink:href="#5"/><use y="36.907" xlink:href="#6"/><use y="45.591" xlink:href="#7"/><use y="47.762" xlink:href="#8"/><text x="0" y="51.603" class="h">Longer</text><text x="7.014" y="51.603" class="h">Label</text><text x="13.026" y="51.603" class="i">██████████████████████████</text></svg><svg x="3520"><use xlink:href="#a"/><use y="0" xlink:href="#2"/><use y="2.171" xlink:href="#2"/><use y="4.342" xlink:href="#2"/><use y="6.513" xlink:href="#2"/><use y="8.684" xlink:href="#2"/><use y="10.855" xlink:href="#2"/><use y="13.026" xlink:href="#3"/><use y="15.197" xlink:href="#3"/><use y="17.368" xlink:href="#3"/><use y="19.539" xlink:href="#3"/><use y="21.71" xlink:href="#3"/><use y="23.881" xlink:href="#4"/><use y="26.052" xlink:href="#4"/><use y="28.223" xlink:href="#4"/><use y="30.394" xlink:href="#4"/><use y="32.565" xlink:href="#4"/><use y="34.736" xlink:href="#5"/><use y="36.907" xlink:href="#6"/><use y="45.591" xlink:href="#7"/><use y="47.762" xlink:href="#8"/><use y="49.933" xlink:href="#9"/></svg><svg x="3600"><use xlink:href="#a"/><use y="0" xlink:href="#2"/><use y="2.171" xlink:href="#2"/><use y="4.342" xlink:href="#2"/><use y="6.513" xlink:href="#2"/><use y="8.684" xlink:href="#2"/><use y="10.855" xlink:href="#3"/><use y="13.026" xlink:href="#3"/><use y="15.197" xlink:href="#3"/><use y="17.368" xlink:href="#3"/><use y="19.539" xlink:href="#3"/><use y="21.71" xlink:href="#4"/><use y="23.881" xlink:href="#4"/><use y="26.052" xlink:href="#4"/><use y="28.223" xlink:href="#4"/><use y="30.394" xlink:href="#4"/><use y="32.565" xlink:href="#5"/><use y="34.736" xlink:href="#6"/><use y="43.42" xlink:href="#7"/><use y="45.591" xlink:href="#8"/><use y="47.762" xlink:href="#9"/></svg><svg x="3680"><use xlink:href="#a"/><use y="0" xlink:href="#2"/><use y="2.171" xlink:href="#2"/><use y="4.342" xlink:href="#2"/><use y="6.513" xlink:href="#2"/><use y="8.684" xlink:href="#3"/><use y="10.855" xlink:href="#3"/><use y="13.026" xlink:href="#3"/><use y="15.197" xlink:href="#3"/><use y="17.368" xlink:href="#3"/><use y="19.539" xlink:href="#4"/><use y="21.71" xlink:href="#4"/><use y="23.881" xlink:href="#4"/><use y="26.052" xlink:href="#4"/><use y="28.223" xlink:href="#4"/><use y="30.394" xlink:href="#5"/><use y="32.565" xlink:href="#6"/><use y="41.249" xlink:href="#7"/><use y="43.42" xlink:href="#8"/><use y="45.591" xlink:href="#9"/></svg><svg x="3760"><use xlink:href="#a"/><use y="0" xlink:href="#2"/><use y="2.171" xlink:href="#2"/><use y="4.342" xlink:href="#3"/><use y="6.513" xlink:href="#3"/><use y="8.684" xlink:href="#3"/><use y="10.855" xlink:href="#3"/><use y="13.026" xlink:href="#3"/><use y="15.197" xlink:href="#4"/><use y="17.368" xlink:href="#4"/><use y="19.539" xlink:href="#4"/><use y="21.71" xlink:href="#4"/><use y="23.881" xlink:href="#4"/><use y="26.052" xlink:href="#5"/><use y="28.223" xlink:href="#6"/><use y="36.907" xlink:href="#7"/><use y="39.078" xlink:href="#8"/><use y="41.249" xlink:href="#9"/><text x="0" y="49.432" class="j">Restarting</text><text x="11.022" y="49.432" class="j">animation...</text></svg></svg></g></g></svg></svg>