<svg xmlns="http://www.w3.org/2000/svg" xmlns:xlink="http://www.w3.org/1999/xlink" width="840" height="581.04"><rect width="840" height="581.04" class="a" rx="5" ry="5"/><svg x="0%" y="0%"><circle cx="20" cy="20" r="6" class="b"/><circle cx="40" cy="20" r="6" class="c"/><circle cx="60" cy="20" r="6" class="d"/></svg><svg xmlns="http://www.w3.org/2000/svg" xmlns:xlink="http://www.w3.org/1999/xlink" width="800" height="521.04" x="15" y="50" viewBox="0 0 80 52.104"><style>@keyframes j{0%{transform:translateX(0)}2.9%{transform:translateX(-80px)}}.e,.f,.g{font-family:&apos;Courier New&apos; Roboto,Helvetica,Arial,sans-serif,&apos;Apple Color Emoji&apos;,&apos;Segoe UI Emoji&apos;!important}.a{fill:#232323}.b{fill:#ff5f58}.c{fill:#ffbd2e}.d{fill:#18c132}.f{fill:#7ee7e9}.f,.g,.h{white-space:pre}.g{fill:#686868}.h{fill:#a0a0a0}.i{fill:transparent}.k{animation-duration:5.150536s;animation-iteration-count:infinite;animation-name:j;animation-timing-function:steps(1,end)}</style><g class="e" font-family="'Courier New',Monaco, Consolas, Menlo, 'Bitstream Vera Sans Mono', 'Powerline Symbols', monospace" font-size="1.67"><defs><symbol id="1"><text x="0" y="1.67" class="f">Firstname</text><text x="10.02" y="1.67" class="g">|</text><text x="12.024" y="1.67" class="f">Lastname</text><text x="21.042" y="1.67" class="g">|</text><text x="42.084" y="1.67" class="f">Email</text><text x="48.096" y="1.67" class="g">|</text><text x="65.13" y="1.67" class="f">Note</text></symbol><symbol id="2"><text x="5.01" y="1.67" class="h">Paul</text><text x="10.02" y="1.67" class="g">|</text><text x="16.032" y="1.67" class="h">Dean</text><text x="21.042" y="1.67" class="g">|</text><text x="23.046" y="1.67" class="h">augue@velitAliquam.co.uk</text><text x="48.096" y="1.67" class="g">|</text></symbol><symbol id="3"><text x="3.006" y="1.67" class="h">Callie</text><text x="10.02" y="1.67" class="g">|</text><text x="15.03" y="1.67" class="h">Mckay</text><text x="21.042" y="1.67" class="g">|</text><text x="31.062" y="1.67" class="h">nunc.sed@est.com</text><text x="48.096" y="1.67" class="g">|</text><text x="50.1" y="1.67" class="h">这是一个测试,</text><text x="58.116" y="1.67" class="h">haha!</text></symbol><symbol id="4"><text x="4.008" y="1.67" class="h">Libby</text><text x="10.02" y="1.67" class="g">|</text><text x="13.026" y="1.67" class="h">Camacho</text><text x="21.042" y="1.67" class="g">|</text><text x="28.056" y="1.67" class="h">lobortis@semper.com</text><text x="48.096" y="1.67" class="g">|</text><text x="52.104" y="1.67" class="h">just</text><text x="57.114" y="1.67" class="h">a</text><text x="59.118" y="1.67" class="h">test,</text><text x="65.13" y="1.67" class="h">hey!</text></symbol><symbol id="5"><text x="7.014" y="1.67" class="h">张</text><text x="9.018" y="1.67" class="g">|</text><text x="15.03" y="1.67" class="h">小宝</text><text x="18.036" y="1.67" class="g">|</text><text x="27.054" y="1.67" class="h">zhang@example.com</text><text x="45.09" y="1.67" class="g">|</text></symbol><symbol id="a"><rect width="80" height="24" x="0" y="0" class="i"/></symbol></defs><rect width="80" height="52.104" class="a"/><g class="k"><svg width="240" x="0" y="0"><svg x="0"><use xlink:href="#a"/></svg><svg x="80"><use xlink:href="#a"/><use y="0" xlink:href="#1"/><use y="2.171" xlink:href="#2"/><use y="4.342" xlink:href="#3"/><use y="6.513" xlink:href="#4"/><use y="8.684" xlink:href="#5"/></svg><svg x="160"><use xlink:href="#a"/><use y="0" xlink:href="#1"/><use y="2.171" xlink:href="#2"/><use y="4.342" xlink:href="#3"/><use y="6.513" xlink:href="#4"/><use y="8.684" xlink:href="#5"/><text x="0" y="16.867" class="h">Restarting</text><text x="11.022" y="16.867" class="h">animation...</text></svg></svg></g></g></svg></svg>