<svg xmlns="http://www.w3.org/2000/svg" xmlns:xlink="http://www.w3.org/1999/xlink" width="840" height="581.04"><rect width="840" height="581.04" class="a" rx="5" ry="5"/><svg x="0%" y="0%"><circle cx="20" cy="20" r="6" class="b"/><circle cx="40" cy="20" r="6" class="c"/><circle cx="60" cy="20" r="6" class="d"/></svg><svg xmlns="http://www.w3.org/2000/svg" xmlns:xlink="http://www.w3.org/1999/xlink" width="800" height="521.04" x="15" y="50" viewBox="0 0 80 52.104"><style>@keyframes i{0%{transform:translateX(0)}2.1%{transform:translateX(-80px)}}.e,.f,.g{font-family:&apos;Courier New&apos; Roboto,Helvetica,Arial,sans-serif,&apos;Apple Color Emoji&apos;,&apos;Segoe UI Emoji&apos;!important}.a{fill:#232323}.b{fill:#ff5f58}.c{fill:#ffbd2e}.d{fill:#18c132}.f,.g{fill:#a0a0a0;white-space:pre}.g{fill:#ea59f6}.h{fill:transparent}.j{animation-duration:5.106849s;animation-iteration-count:infinite;animation-name:i;animation-timing-function:steps(1,end)}</style><g class="e" font-family="'Courier New',Monaco, Consolas, Menlo, 'Bitstream Vera Sans Mono', 'Powerline Symbols', monospace" font-size="1.67"><defs><symbol id="1"><text x="0" y="1.67" class="f">Default</text><text x="8.016" y="1.67" class="f">basic</text><text x="14.028" y="1.67" class="f">text</text><text x="19.038" y="1.67" class="f">printer.</text></symbol><symbol id="2"><text x="0" y="1.67" class="f">Can</text><text x="4.008" y="1.67" class="f">be</text><text x="7.014" y="1.67" class="f">used</text><text x="12.024" y="1.67" class="f">in</text><text x="15.03" y="1.67" class="f">any</text><text x="19.038" y="1.67" class="g">TextPrinter</text><text x="31.062" y="1.67" class="f">context.</text></symbol><symbol id="3"><text x="0" y="1.67" class="f">For</text><text x="4.008" y="1.67" class="f">example</text><text x="12.024" y="1.67" class="f">to</text><text x="15.03" y="1.67" class="f">resolve</text><text x="23.046" y="1.67" class="f">progressbars</text><text x="36.072" y="1.67" class="f">and</text><text x="40.08" y="1.67" class="f">spinners.</text></symbol><symbol id="a"><rect width="80" height="24" x="0" y="0" class="h"/></symbol></defs><rect width="80" height="52.104" class="a"/><g class="j"><svg width="240" x="0" y="0"><svg x="0"><use xlink:href="#a"/></svg><svg x="80"><use xlink:href="#a"/><use y="0" xlink:href="#1"/><use y="4.342" xlink:href="#2"/><use y="8.684" xlink:href="#3"/></svg><svg x="160"><use xlink:href="#a"/><use y="0" xlink:href="#1"/><use y="4.342" xlink:href="#2"/><use y="8.684" xlink:href="#3"/><text x="0" y="16.867" class="f">Restarting</text><text x="11.022" y="16.867" class="f">animation...</text></svg></svg></g></g></svg></svg>