<svg xmlns="http://www.w3.org/2000/svg" xmlns:xlink="http://www.w3.org/1999/xlink" width="840" height="581.04"><rect width="840" height="581.04" class="a" rx="5" ry="5"/><svg x="0%" y="0%"><circle cx="20" cy="20" r="6" class="b"/><circle cx="40" cy="20" r="6" class="c"/><circle cx="60" cy="20" r="6" class="d"/></svg><svg xmlns="http://www.w3.org/2000/svg" xmlns:xlink="http://www.w3.org/1999/xlink" width="800" height="521.04" x="15" y="50" viewBox="0 0 80 52.104"><style>@keyframes h{0%{transform:translateX(0)}2.4%{transform:translateX(-80px)}3.3%{transform:translateX(-160px)}}.e,.f,.g{font-family:&apos;Courier New&apos; Roboto,Helvetica,Arial,sans-serif,&apos;Apple Color Emoji&apos;,&apos;Segoe UI Emoji&apos;!important}.a{fill:#232323}.b{fill:#ff5f58}.c{fill:#ffbd2e}.d{fill:#18c132}.f{fill:#a0a0a0;white-space:pre}.g{fill:transparent}.i{animation-duration:5.172773s;animation-iteration-count:infinite;animation-name:h;animation-timing-function:steps(1,end)}</style><g class="e" font-family="'Courier New',Monaco, Consolas, Menlo, 'Bitstream Vera Sans Mono', 'Powerline Symbols', monospace" font-size="1.67"><defs><symbol id="1"><text x="0" y="1.67" class="f">{&quot;level&quot;:&quot;TRACE&quot;,&quot;msg&quot;:&quot;Doing</text><text x="30.06" y="1.67" class="f">not</text><text x="34.068" y="1.67" class="f">so</text><text x="37.074" y="1.67" class="f">important</text><text x="47.094" y="1.67" class="f">stuff&quot;,&quot;priority&quot;:&quot;super</text><text x="72.144" y="1.67" class="f">low&quot;,&quot;ti</text></symbol><symbol id="2"><text x="0" y="1.67" class="f">mestamp&quot;:&quot;2023-04-09</text><text x="21.042" y="1.67" class="f">23:11:03&quot;}</text></symbol><symbol id="3"><text x="0" y="1.67" class="f">{&quot;is</text><text x="5.01" y="1.67" class="f">this</text><text x="10.02" y="1.67" class="f">interesting&quot;:true,&quot;level&quot;:&quot;DEBUG&quot;,&quot;msg&quot;:&quot;This</text><text x="56.112" y="1.67" class="f">might</text><text x="62.124" y="1.67" class="f">be</text><text x="65.13" y="1.67" class="f">interesting&quot;,&quot;t</text></symbol><symbol id="4"><text x="0" y="1.67" class="f">imestamp&quot;:&quot;2023-04-09</text><text x="22.044" y="1.67" class="f">23:11:03&quot;,&quot;what</text><text x="38.076" y="1.67" class="f">is</text><text x="41.082" y="1.67" class="f">the</text><text x="45.09" y="1.67" class="f">meaning</text><text x="53.106" y="1.67" class="f">of</text><text x="56.112" y="1.67" class="f">life&quot;:42,&quot;when</text><text x="71.142" y="1.67" class="f">were</text><text x="76.152" y="1.67" class="f">cray</text></symbol><symbol id="5"><text x="0" y="1.67" class="f">ons</text><text x="4.008" y="1.67" class="f">invented&quot;:&quot;1903&quot;}</text></symbol><symbol id="6"><text x="0" y="1.67" class="f">{&quot;level&quot;:&quot;INFO&quot;,&quot;msg&quot;:&quot;That</text><text x="28.056" y="1.67" class="f">was</text><text x="32.064" y="1.67" class="f">actually</text><text x="41.082" y="1.67" class="f">interesting&quot;,&quot;such&quot;:&quot;wow&quot;,&quot;timestamp&quot;:&quot;</text></symbol><symbol id="7"><text x="0" y="1.67" class="f">2023-04-09</text><text x="11.022" y="1.67" class="f">23:11:03&quot;}</text></symbol><symbol id="8"><text x="0" y="1.67" class="f">{&quot;level&quot;:&quot;WARN&quot;,&quot;measures&quot;:&quot;mph&quot;,&quot;msg&quot;:&quot;Oh</text><text x="43.086" y="1.67" class="f">no,</text><text x="47.094" y="1.67" class="f">I</text><text x="49.098" y="1.67" class="f">see</text><text x="53.106" y="1.67" class="f">an</text><text x="56.112" y="1.67" class="f">error</text><text x="62.124" y="1.67" class="f">coming</text><text x="69.138" y="1.67" class="f">to</text><text x="72.144" y="1.67" class="f">us!&quot;,&quot;sp</text></symbol><symbol id="9"><text x="0" y="1.67" class="f">eed&quot;:88,&quot;timestamp&quot;:&quot;2023-04-09</text><text x="32.064" y="1.67" class="f">23:11:03&quot;}</text></symbol><symbol id="10"><text x="0" y="1.67" class="f">{&quot;error&quot;:&quot;something</text><text x="20.04" y="1.67" class="f">went</text><text x="25.05" y="1.67" class="f">wrong&quot;,&quot;level&quot;:&quot;ERROR&quot;,&quot;msg&quot;:&quot;Damn,</text><text x="61.122" y="1.67" class="f">here</text><text x="66.132" y="1.67" class="f">it</text><text x="69.138" y="1.67" class="f">is!&quot;,&quot;times</text></symbol><symbol id="11"><text x="0" y="1.67" class="f">tamp&quot;:&quot;2023-04-09</text><text x="18.036" y="1.67" class="f">23:11:03&quot;}</text></symbol><symbol id="12"><text x="0" y="1.67" class="f">{&quot;level&quot;:&quot;INFO&quot;,&quot;msg&quot;:&quot;But</text><text x="27.054" y="1.67" class="f">what&apos;s</text><text x="34.068" y="1.67" class="f">really</text><text x="41.082" y="1.67" class="f">cool</text><text x="46.092" y="1.67" class="f">is,</text><text x="50.1" y="1.67" class="f">that</text><text x="55.11" y="1.67" class="f">you</text><text x="59.118" y="1.67" class="f">can</text><text x="63.126" y="1.67" class="f">print</text><text x="69.138" y="1.67" class="f">very</text><text x="74.148" y="1.67" class="f">long</text><text x="79.158" y="1.67" class="f">l</text></symbol><symbol id="13"><text x="0" y="1.67" class="f">ogs,</text><text x="5.01" y="1.67" class="f">and</text><text x="9.018" y="1.67" class="f">PTerm</text><text x="15.03" y="1.67" class="f">will</text><text x="20.04" y="1.67" class="f">automatically</text><text x="34.068" y="1.67" class="f">wrap</text><text x="39.078" y="1.67" class="f">them</text><text x="44.088" y="1.67" class="f">for</text><text x="48.096" y="1.67" class="f">you!</text><text x="53.106" y="1.67" class="f">Say</text><text x="57.114" y="1.67" class="f">goodbye</text><text x="65.13" y="1.67" class="f">to</text><text x="68.136" y="1.67" class="f">text,</text><text x="74.148" y="1.67" class="f">that</text><text x="79.158" y="1.67" class="f">h</text></symbol><symbol id="14"><text x="0" y="1.67" class="f">as</text><text x="3.006" y="1.67" class="f">weird</text><text x="9.018" y="1.67" class="f">line</text><text x="14.028" y="1.67" class="f">breaks!&quot;,&quot;timestamp&quot;:&quot;2023-04-09</text><text x="47.094" y="1.67" class="f">23:11:03&quot;,&quot;very&quot;:&quot;long&quot;}</text></symbol><symbol id="15"><text x="0" y="1.67" class="f">{&quot;fatal&quot;:true,&quot;level&quot;:&quot;FATAL&quot;,&quot;msg&quot;:&quot;Oh</text><text x="40.08" y="1.67" class="f">no,</text><text x="44.088" y="1.67" class="f">this</text><text x="49.098" y="1.67" class="f">process</text><text x="57.114" y="1.67" class="f">is</text><text x="60.12" y="1.67" class="f">getting</text><text x="68.136" y="1.67" class="f">killed!&quot;,&quot;ti</text></symbol><symbol id="a"><rect width="80" height="24" x="0" y="0" class="g"/></symbol></defs><rect width="80" height="52.104" class="a"/><g class="i"><svg width="320" x="0" y="0"><svg x="0"><use xlink:href="#a"/></svg><svg x="80"><use xlink:href="#a"/><use y="0" xlink:href="#1"/><use y="2.171" xlink:href="#2"/></svg><svg x="160"><use xlink:href="#a"/><use y="0" xlink:href="#1"/><use y="2.171" xlink:href="#2"/><use y="4.342" xlink:href="#3"/><use y="6.513" xlink:href="#4"/><use y="8.684" xlink:href="#5"/><use y="10.855" xlink:href="#6"/><use y="13.026" xlink:href="#7"/><use y="15.197" xlink:href="#8"/><use y="17.368" xlink:href="#9"/><use y="19.539" xlink:href="#10"/><use y="21.71" xlink:href="#11"/><use y="23.881" xlink:href="#12"/><use y="26.052" xlink:href="#13"/><use y="28.223" xlink:href="#14"/><use y="30.394" xlink:href="#15"/><use y="32.565" xlink:href="#2"/></svg><svg x="240"><use xlink:href="#a"/><use y="0" xlink:href="#1"/><use y="2.171" xlink:href="#2"/><use y="4.342" xlink:href="#3"/><use y="6.513" xlink:href="#4"/><use y="8.684" xlink:href="#5"/><use y="10.855" xlink:href="#6"/><use y="13.026" xlink:href="#7"/><use y="15.197" xlink:href="#8"/><use y="17.368" xlink:href="#9"/><use y="19.539" xlink:href="#10"/><use y="21.71" xlink:href="#11"/><use y="23.881" xlink:href="#12"/><use y="26.052" xlink:href="#13"/><use y="28.223" xlink:href="#14"/><use y="30.394" xlink:href="#15"/><use y="32.565" xlink:href="#2"/><text x="0" y="38.577" class="f">Restarting</text><text x="11.022" y="38.577" class="f">animation...</text></svg></svg></g></g></svg></svg>