<svg xmlns="http://www.w3.org/2000/svg" xmlns:xlink="http://www.w3.org/1999/xlink" width="840" height="581.04"><rect width="840" height="581.04" class="a" rx="5" ry="5"/><svg x="0%" y="0%"><circle cx="20" cy="20" r="6" class="b"/><circle cx="40" cy="20" r="6" class="c"/><circle cx="60" cy="20" r="6" class="d"/></svg><svg xmlns="http://www.w3.org/2000/svg" xmlns:xlink="http://www.w3.org/1999/xlink" width="800" height="521.04" x="15" y="50" viewBox="0 0 80 52.104"><style>@keyframes l{0%{transform:translateX(0)}1.6%{transform:translateX(-80px)}2%{transform:translateX(-160px)}}.e,.f,.g{font-family:&apos;Courier New&apos; Roboto,Helvetica,Arial,sans-serif,&apos;Apple Color Emoji&apos;,&apos;Segoe UI Emoji&apos;!important}.a{fill:#232323}.b{fill:#ff5f58}.c{fill:#ffbd2e}.d{fill:#18c132}.f,.g{fill:#a0a0a0;white-space:pre}.g{fill:#fff100;font-weight:700}.h{fill:#66c2cd}.i,.j{white-space:pre}.j{fill:#7ee7e9}.k{fill:transparent}.m{animation-duration:5.102999s;animation-iteration-count:infinite;animation-name:l;animation-timing-function:steps(1,end)}</style><g class="e" font-family="'Courier New',Monaco, Consolas, Menlo, 'Bitstream Vera Sans Mono', 'Powerline Symbols', monospace" font-size="1.67"><defs><symbol id="1"><text x="0" y="1.67" class="f">#</text><text x="2.004" y="1.67" class="g">This</text><text x="7.014" y="1.67" class="g">is</text><text x="10.02" y="1.67" class="g">a</text><text x="12.024" y="1.67" class="g">section!</text></symbol><symbol id="2"><rect width="6" height="2.171" x="0" y="0" class="h"/><text x="0" y="1.67" class="i">INFO</text><text x="7.014" y="1.67" class="j">And</text><text x="11.022" y="1.67" class="j">here</text><text x="16.032" y="1.67" class="j">is</text><text x="19.038" y="1.67" class="j">some</text><text x="24.048" y="1.67" class="j">text.</text></symbol><symbol id="3"><rect width="6" height="2.171" x="0" y="0" class="h"/><text x="7.014" y="1.67" class="j">This</text><text x="12.024" y="1.67" class="j">text</text><text x="17.034" y="1.67" class="j">could</text><text x="23.046" y="1.67" class="j">be</text><text x="26.052" y="1.67" class="j">anything.</text></symbol><symbol id="4"><rect width="6" height="2.171" x="0" y="0" class="h"/><text x="7.014" y="1.67" class="j">Basically</text><text x="17.034" y="1.67" class="j">it&apos;s</text><text x="22.044" y="1.67" class="j">just</text><text x="27.054" y="1.67" class="j">a</text><text x="29.058" y="1.67" class="j">placeholder</text></symbol><symbol id="5"><text x="0" y="1.67" class="f">##</text><text x="3.006" y="1.67" class="g">This</text><text x="8.016" y="1.67" class="g">is</text><text x="11.022" y="1.67" class="g">another</text><text x="19.038" y="1.67" class="g">section!</text></symbol><symbol id="6"><rect width="6" height="2.171" x="0" y="0" class="h"/><text x="0" y="1.67" class="i">INFO</text><text x="7.014" y="1.67" class="j">And</text><text x="11.022" y="1.67" class="j">this</text><text x="16.032" y="1.67" class="j">is</text></symbol><symbol id="7"><rect width="6" height="2.171" x="0" y="0" class="h"/><text x="7.014" y="1.67" class="j">more</text><text x="12.024" y="1.67" class="j">placeholder</text><text x="24.048" y="1.67" class="j">text</text></symbol><symbol id="a"><rect width="80" height="24" x="0" y="0" class="k"/></symbol></defs><rect width="80" height="52.104" class="a"/><g class="m"><svg width="320" x="0" y="0"><svg x="0"><use xlink:href="#a"/></svg><svg x="80"><use xlink:href="#a"/></svg><svg x="160"><use xlink:href="#a"/><use y="2.171" xlink:href="#1"/><use y="6.513" xlink:href="#2"/><use y="8.684" xlink:href="#3"/><use y="10.855" xlink:href="#4"/><use y="15.197" xlink:href="#5"/><use y="19.539" xlink:href="#6"/><use y="21.71" xlink:href="#7"/></svg><svg x="240"><use xlink:href="#a"/><use y="2.171" xlink:href="#1"/><use y="6.513" xlink:href="#2"/><use y="8.684" xlink:href="#3"/><use y="10.855" xlink:href="#4"/><use y="15.197" xlink:href="#5"/><use y="19.539" xlink:href="#6"/><use y="21.71" xlink:href="#7"/><text x="0" y="27.722" class="f">Restarting</text><text x="11.022" y="27.722" class="f">animation...</text></svg></svg></g></g></svg></svg>