<svg xmlns="http://www.w3.org/2000/svg" xmlns:xlink="http://www.w3.org/1999/xlink" width="840" height="581.04"><rect width="840" height="581.04" class="a" rx="5" ry="5"/><svg x="0%" y="0%"><circle cx="20" cy="20" r="6" class="b"/><circle cx="40" cy="20" r="6" class="c"/><circle cx="60" cy="20" r="6" class="d"/></svg><svg xmlns="http://www.w3.org/2000/svg" xmlns:xlink="http://www.w3.org/1999/xlink" width="800" height="521.04" x="15" y="50" viewBox="0 0 80 52.104"><style>@keyframes m{0%{transform:translateX(0)}.9%{transform:translateX(-80px)}29.2%{transform:translateX(-160px)}}.e,.f,.g{font-family:&apos;Courier New&apos; Roboto,Helvetica,Arial,sans-serif,&apos;Apple Color Emoji&apos;,&apos;Segoe UI Emoji&apos;!important}.a{fill:#232323}.b{fill:#ff5f58}.c{fill:#ffbd2e}.d{fill:#18c132}.f{fill:#7ee7e9}.f,.g,.h{white-space:pre}.g{fill:#ea59f6}.h{fill:#7cff00}.i{fill:#66c2cd}.j{white-space:pre}.k{fill:transparent}.l{fill:#a0a0a0}.n{animation-duration:7.06188s;animation-iteration-count:infinite;animation-name:m;animation-timing-function:steps(1,end)}.o{fill:#a0a0a0;white-space:pre}</style><g class="e" font-family="'Courier New',Monaco, Consolas, Menlo, 'Bitstream Vera Sans Mono', 'Powerline Symbols', monospace" font-size="1.67"><defs><symbol id="1"><text x="0" y="1.67" class="f">Please</text><text x="7.014" y="1.67" class="f">confirm</text><text x="15.03" y="1.67" class="g">[y/N]</text><text x="20.04" y="1.67" class="f">:</text><text x="22.044" y="1.67" class="h">Yes</text></symbol><symbol id="2"><rect width="6" height="2.171" x="0" y="0" class="i"/><text x="0" y="1.67" class="j">INFO</text><text x="7.014" y="1.67" class="f">You</text><text x="11.022" y="1.67" class="f">answered:</text><text x="21.042" y="1.67" class="h">Yes</text></symbol><symbol id="a"><rect width="80" height="24" x="0" y="0" class="k"/></symbol><symbol id="b"><rect width="1.102" height="2.171" class="l"/></symbol></defs><rect width="80" height="52.104" class="a"/><g class="n"><svg width="320" x="0" y="0"><svg x="0"><use xlink:href="#a"/><use x="-.004" y="0" xlink:href="#b"/></svg><svg x="80"><use xlink:href="#a"/><use x="21.996" y="0" xlink:href="#b"/><text x="0" y="1.67" class="f">Please</text><text x="7.014" y="1.67" class="f">confirm</text><text x="15.03" y="1.67" class="g">[y/N]</text><text x="20.04" y="1.67" class="f">:</text></svg><svg x="160"><use xlink:href="#a"/><use x="-.004" y="6.488" xlink:href="#b"/><use y="0" xlink:href="#1"/><use y="4.342" xlink:href="#2"/></svg><svg x="240"><use xlink:href="#a"/><use x="22.996" y="10.83" xlink:href="#b"/><use y="0" xlink:href="#1"/><use y="4.342" xlink:href="#2"/><text x="0" y="10.354" class="o">Restarting</text><text x="11.022" y="10.354" class="o">animation...</text></svg></svg></g></g></svg></svg>