<svg xmlns="http://www.w3.org/2000/svg" xmlns:xlink="http://www.w3.org/1999/xlink" width="840" height="581.04"><rect width="840" height="581.04" class="a" rx="5" ry="5"/><svg x="0%" y="0%"><circle cx="20" cy="20" r="6" class="b"/><circle cx="40" cy="20" r="6" class="c"/><circle cx="60" cy="20" r="6" class="d"/></svg><svg xmlns="http://www.w3.org/2000/svg" xmlns:xlink="http://www.w3.org/1999/xlink" width="800" height="521.04" x="15" y="50" viewBox="0 0 80 52.104"><style>@keyframes i{0%{transform:translateX(0)}5.7%{transform:translateX(-80px)}6.4%{transform:translateX(-240px)}}.e,.f,.g{font-family:&apos;Courier New&apos; Roboto,Helvetica,Arial,sans-serif,&apos;Apple Color Emoji&apos;,&apos;Segoe UI Emoji&apos;!important}.a{fill:#232323}.b{fill:#ff5f58}.c{fill:#ffbd2e}.d{fill:#18c132}.f,.g{fill:#00c6ff;white-space:pre}.g{fill:#7ee7e9}.h{fill:transparent}.j{animation-duration:5.341391s;animation-iteration-count:infinite;animation-name:i;animation-timing-function:steps(1,end)}.k{fill:#a0a0a0;white-space:pre}</style><g class="e" font-family="'Courier New',Monaco, Consolas, Menlo, 'Bitstream Vera Sans Mono', 'Powerline Symbols', monospace" font-size="1.67"><defs><symbol id="1"><text x="12.024" y="1.67" class="f">██</text></symbol><symbol id="2"><text x="9.018" y="1.67" class="f">██</text><text x="12.024" y="1.67" class="f">██</text><text x="15.03" y="1.67" class="f">██</text></symbol><symbol id="3"><text x="6.012" y="1.67" class="f">██</text><text x="9.018" y="1.67" class="f">██</text><text x="12.024" y="1.67" class="f">██</text><text x="15.03" y="1.67" class="f">██</text><text x="18.036" y="1.67" class="f">██</text></symbol><symbol id="4"><text x="3.006" y="1.67" class="f">██</text><text x="6.012" y="1.67" class="f">██</text><text x="9.018" y="1.67" class="f">██</text><text x="12.024" y="1.67" class="f">██</text><text x="15.03" y="1.67" class="f">██</text><text x="18.036" y="1.67" class="f">██</text><text x="21.042" y="1.67" class="f">██</text></symbol><symbol id="5"><text x="0" y="1.67" class="f">██</text><text x="3.006" y="1.67" class="f">██</text><text x="6.012" y="1.67" class="f">██</text><text x="9.018" y="1.67" class="f">██</text><text x="12.024" y="1.67" class="f">██</text><text x="15.03" y="1.67" class="f">██</text><text x="18.036" y="1.67" class="f">██</text><text x="21.042" y="1.67" class="f">██</text><text x="24.048" y="1.67" class="f">██</text></symbol><symbol id="6"><text x="0" y="1.67" class="g">A</text><text x="3.006" y="1.67" class="g">B</text><text x="6.012" y="1.67" class="g">C</text><text x="9.018" y="1.67" class="g">D</text><text x="12.024" y="1.67" class="g">E</text><text x="15.03" y="1.67" class="g">F</text><text x="18.036" y="1.67" class="g">G</text><text x="21.042" y="1.67" class="g">H</text><text x="24.048" y="1.67" class="g">I</text></symbol><symbol id="a"><rect width="80" height="24" x="0" y="0" class="h"/></symbol></defs><rect width="80" height="52.104" class="a"/><g class="j"><svg width="400" x="0" y="0"><svg x="0"><use xlink:href="#a"/></svg><svg x="80"><use xlink:href="#a"/><use y="0" xlink:href="#1"/><use y="2.171" xlink:href="#1"/><use y="4.342" xlink:href="#1"/><use y="6.513" xlink:href="#1"/><use y="8.684" xlink:href="#2"/><use y="10.855" xlink:href="#2"/><use y="13.026" xlink:href="#2"/><use y="15.197" xlink:href="#3"/></svg><svg x="160"><use xlink:href="#a"/><use y="0" xlink:href="#1"/><use y="2.171" xlink:href="#1"/><use y="4.342" xlink:href="#1"/><use y="6.513" xlink:href="#1"/><use y="8.684" xlink:href="#2"/><use y="10.855" xlink:href="#2"/><use y="13.026" xlink:href="#2"/><use y="15.197" xlink:href="#3"/><use y="17.368" xlink:href="#3"/><use y="19.539" xlink:href="#3"/><use y="21.71" xlink:href="#4"/><use y="23.881" xlink:href="#4"/><use y="26.052" xlink:href="#4"/><text x="0" y="29.893" class="f">██</text><text x="3.006" y="29.893" class="f">██</text><text x="6.012" y="29.893" class="f">██</text><text x="9.018" y="29.893" class="f">██</text><text x="12.024" y="29.893" class="f">██</text><text x="15.03" y="29.893" class="f">██</text><text x="18.036" y="29.893" class="f">██</text><text x="21.042" y="29.893" class="f">██</text></svg><svg x="240"><use xlink:href="#a"/><use y="0" xlink:href="#1"/><use y="2.171" xlink:href="#1"/><use y="4.342" xlink:href="#1"/><use y="6.513" xlink:href="#1"/><use y="8.684" xlink:href="#2"/><use y="10.855" xlink:href="#2"/><use y="13.026" xlink:href="#2"/><use y="15.197" xlink:href="#3"/><use y="17.368" xlink:href="#3"/><use y="19.539" xlink:href="#3"/><use y="21.71" xlink:href="#4"/><use y="23.881" xlink:href="#4"/><use y="26.052" xlink:href="#4"/><use y="28.223" xlink:href="#5"/><use y="30.394" xlink:href="#5"/><use y="32.565" xlink:href="#5"/><use y="34.736" xlink:href="#6"/></svg><svg x="320"><use xlink:href="#a"/><use y="0" xlink:href="#1"/><use y="2.171" xlink:href="#1"/><use y="4.342" xlink:href="#1"/><use y="6.513" xlink:href="#1"/><use y="8.684" xlink:href="#2"/><use y="10.855" xlink:href="#2"/><use y="13.026" xlink:href="#2"/><use y="15.197" xlink:href="#3"/><use y="17.368" xlink:href="#3"/><use y="19.539" xlink:href="#3"/><use y="21.71" xlink:href="#4"/><use y="23.881" xlink:href="#4"/><use y="26.052" xlink:href="#4"/><use y="28.223" xlink:href="#5"/><use y="30.394" xlink:href="#5"/><use y="32.565" xlink:href="#5"/><use y="34.736" xlink:href="#6"/><text x="0" y="45.09" class="k">Restarting</text><text x="11.022" y="45.09" class="k">animation...</text></svg></svg></g></g></svg></svg>