<svg xmlns="http://www.w3.org/2000/svg" xmlns:xlink="http://www.w3.org/1999/xlink" width="840" height="581.04"><rect width="840" height="581.04" class="a" rx="5" ry="5"/><svg x="0%" y="0%"><circle cx="20" cy="20" r="6" class="b"/><circle cx="40" cy="20" r="6" class="c"/><circle cx="60" cy="20" r="6" class="d"/></svg><svg xmlns="http://www.w3.org/2000/svg" xmlns:xlink="http://www.w3.org/1999/xlink" width="800" height="521.04" x="15" y="50" viewBox="0 0 80 52.104"><style>@keyframes p{0%{transform:translateX(0)}1.6%{transform:translateX(-80px)}2.3%{transform:translateX(-160px)}16.1%{transform:translateX(-400px)}17.6%{transform:translateX(-1120px)}21.9%{transform:translateX(-1840px)}23.4%{transform:translateX(-2800px)}27.7%{transform:translateX(-3600px)}}.e,.f,.g{font-family:&apos;Courier New&apos; Roboto,Helvetica,Arial,sans-serif,&apos;Apple Color Emoji&apos;,&apos;Segoe UI Emoji&apos;!important}.a{fill:#232323}.b{fill:#ff5f58}.c{fill:#ffbd2e}.d{fill:#18c132}.f{fill:#7ee7e9}.f,.g,.h{white-space:pre}.g{fill:#a0a0a0}.h{fill:#ea59f6}.i{fill:#ff0004}.i,.j,.k{white-space:pre}.j{fill:#ea59f6;font-weight:700}.k{fill:#7cff00}.l{fill:#66c2cd}.m{white-space:pre}.n{fill:transparent}.o{fill:#a0a0a0}.q{animation-duration:6.9176649999999995s;animation-iteration-count:infinite;animation-name:p;animation-timing-function:steps(1,end)}</style><g class="e" font-family="'Courier New',Monaco, Consolas, Menlo, 'Bitstream Vera Sans Mono', 'Powerline Symbols', monospace" font-size="1.67"><defs><symbol id="1"><text x="0" y="1.67" class="f">Please</text><text x="7.014" y="1.67" class="f">select</text><text x="14.028" y="1.67" class="f">your</text><text x="19.038" y="1.67" class="f">options</text><text x="26.052" y="1.67" class="g">:</text></symbol><symbol id="2"><text x="0" y="1.67" class="h">&gt;</text><text x="2.004" y="1.67" class="g">[</text><text x="3.006" y="1.67" class="i">✗</text><text x="4.008" y="1.67" class="g">]</text><text x="6.012" y="1.67" class="g">Option</text><text x="13.026" y="1.67" class="g">0</text></symbol><symbol id="3"><text x="2.004" y="1.67" class="g">[</text><text x="3.006" y="1.67" class="i">✗</text><text x="4.008" y="1.67" class="g">]</text><text x="6.012" y="1.67" class="g">Option</text><text x="13.026" y="1.67" class="g">1</text></symbol><symbol id="4"><text x="2.004" y="1.67" class="g">[</text><text x="3.006" y="1.67" class="i">✗</text><text x="4.008" y="1.67" class="g">]</text><text x="6.012" y="1.67" class="g">Option</text><text x="13.026" y="1.67" class="g">2</text></symbol><symbol id="5"><text x="2.004" y="1.67" class="g">[</text><text x="3.006" y="1.67" class="i">✗</text><text x="4.008" y="1.67" class="g">]</text><text x="6.012" y="1.67" class="g">Option</text><text x="13.026" y="1.67" class="g">3</text></symbol><symbol id="6"><text x="2.004" y="1.67" class="g">[</text><text x="3.006" y="1.67" class="i">✗</text><text x="4.008" y="1.67" class="g">]</text><text x="6.012" y="1.67" class="g">Option</text><text x="13.026" y="1.67" class="g">4</text></symbol><symbol id="7"><text x="0" y="1.67" class="h">space:</text><text x="7.014" y="1.67" class="j">select</text><text x="14.028" y="1.67" class="h">|</text><text x="16.032" y="1.67" class="h">enter:</text><text x="23.046" y="1.67" class="j">confirm</text><text x="31.062" y="1.67" class="h">|</text><text x="33.066" y="1.67" class="h">left:</text><text x="39.078" y="1.67" class="j">none</text><text x="44.088" y="1.67" class="h">|</text><text x="46.092" y="1.67" class="h">right:</text><text x="53.106" y="1.67" class="j">all</text></symbol><symbol id="8"><text x="2.004" y="1.67" class="g">[</text><text x="3.006" y="1.67" class="i">✗</text><text x="4.008" y="1.67" class="g">]</text><text x="6.012" y="1.67" class="g">Option</text><text x="13.026" y="1.67" class="g">0</text></symbol><symbol id="9"><text x="0" y="1.67" class="h">&gt;</text><text x="2.004" y="1.67" class="g">[</text><text x="3.006" y="1.67" class="i">✗</text><text x="4.008" y="1.67" class="g">]</text><text x="6.012" y="1.67" class="g">Option</text><text x="13.026" y="1.67" class="g">1</text></symbol><symbol id="10"><text x="0" y="1.67" class="h">&gt;</text><text x="2.004" y="1.67" class="g">[</text><text x="3.006" y="1.67" class="k">✓</text><text x="4.008" y="1.67" class="g">]</text><text x="6.012" y="1.67" class="g">Option</text><text x="13.026" y="1.67" class="g">1</text></symbol><symbol id="11"><text x="2.004" y="1.67" class="g">[</text><text x="3.006" y="1.67" class="k">✓</text><text x="4.008" y="1.67" class="g">]</text><text x="6.012" y="1.67" class="g">Option</text><text x="13.026" y="1.67" class="g">1</text></symbol><symbol id="12"><text x="0" y="1.67" class="h">&gt;</text><text x="2.004" y="1.67" class="g">[</text><text x="3.006" y="1.67" class="i">✗</text><text x="4.008" y="1.67" class="g">]</text><text x="6.012" y="1.67" class="g">Option</text><text x="13.026" y="1.67" class="g">2</text></symbol><symbol id="13"><text x="0" y="1.67" class="h">&gt;</text><text x="2.004" y="1.67" class="g">[</text><text x="3.006" y="1.67" class="k">✓</text><text x="4.008" y="1.67" class="g">]</text><text x="6.012" y="1.67" class="g">Option</text><text x="13.026" y="1.67" class="g">2</text></symbol><symbol id="14"><text x="2.004" y="1.67" class="h">&gt;</text><text x="4.008" y="1.67" class="g">Option</text><text x="11.022" y="1.67" class="g">1</text></symbol><symbol id="15"><text x="2.004" y="1.67" class="h">&gt;</text><text x="4.008" y="1.67" class="g">Option</text><text x="11.022" y="1.67" class="g">2</text></symbol><symbol id="16"><rect width="6" height="2.171" x="0" y="0" class="l"/><text x="0" y="1.67" class="m">INFO</text><text x="7.014" y="1.67" class="f">Selected</text><text x="16.032" y="1.67" class="f">options:</text><text x="25.05" y="1.67" class="k">[Option</text><text x="33.066" y="1.67" class="k">1</text><text x="35.07" y="1.67" class="k">Option</text><text x="42.084" y="1.67" class="k">2]</text></symbol><symbol id="a"><rect width="80" height="24" x="0" y="0" class="n"/></symbol><symbol id="b"><rect width="1.102" height="2.171" class="o"/></symbol></defs><rect width="80" height="52.104" class="a"/><g class="q"><svg width="3760" x="0" y="0"><svg x="0"><use xlink:href="#a"/><use x="-.004" y="0" xlink:href="#b"/></svg><svg x="80"><use xlink:href="#a"/><use x="-.004" y="0" xlink:href="#b"/></svg><svg x="160"><use xlink:href="#a"/><use y="0" xlink:href="#1"/><use y="2.171" xlink:href="#2"/><use y="4.342" xlink:href="#3"/><use y="6.513" xlink:href="#4"/><use y="8.684" xlink:href="#5"/><use y="10.855" xlink:href="#6"/><use y="13.026" xlink:href="#7"/></svg><svg x="240"><use xlink:href="#a"/><use y="0" xlink:href="#1"/><use y="2.171" xlink:href="#2"/><use y="4.342" xlink:href="#3"/><use y="6.513" xlink:href="#4"/><use y="8.684" xlink:href="#5"/><use y="10.855" xlink:href="#6"/><use y="13.026" xlink:href="#7"/></svg><svg x="320"><use xlink:href="#a"/><use y="0" xlink:href="#1"/></svg><svg x="400"><use xlink:href="#a"/><use y="0" xlink:href="#1"/><use y="2.171" xlink:href="#8"/><use y="4.342" xlink:href="#9"/><use y="6.513" xlink:href="#4"/><use y="8.684" xlink:href="#5"/><use y="10.855" xlink:href="#6"/><use y="13.026" xlink:href="#7"/></svg><svg x="480"><use xlink:href="#a"/><use y="0" xlink:href="#1"/><use y="2.171" xlink:href="#8"/><use y="4.342" xlink:href="#9"/><use y="6.513" xlink:href="#4"/><use y="8.684" xlink:href="#5"/><use y="10.855" xlink:href="#6"/><use y="13.026" xlink:href="#7"/></svg><svg x="560"><use xlink:href="#a"/><use y="0" xlink:href="#1"/><use y="2.171" xlink:href="#8"/><use y="4.342" xlink:href="#9"/><use y="6.513" xlink:href="#4"/><use y="8.684" xlink:href="#5"/><use y="10.855" xlink:href="#6"/><use y="13.026" xlink:href="#7"/></svg><svg x="640"><use xlink:href="#a"/><use y="0" xlink:href="#1"/><use y="2.171" xlink:href="#8"/><use y="4.342" xlink:href="#9"/><use y="6.513" xlink:href="#4"/><use y="8.684" xlink:href="#5"/><use y="10.855" xlink:href="#6"/><use y="13.026" xlink:href="#7"/></svg><svg x="720"><use xlink:href="#a"/><use y="0" xlink:href="#1"/><use y="2.171" xlink:href="#8"/><use y="4.342" xlink:href="#9"/><use y="6.513" xlink:href="#4"/><use y="8.684" xlink:href="#5"/><use y="10.855" xlink:href="#6"/></svg><svg x="800"><use xlink:href="#a"/><use y="0" xlink:href="#1"/><use y="2.171" xlink:href="#8"/></svg><svg x="880"><use xlink:href="#a"/></svg><svg x="960"><use xlink:href="#a"/><use y="0" xlink:href="#1"/></svg><svg x="1040"><use xlink:href="#a"/><use y="0" xlink:href="#1"/><use y="2.171" xlink:href="#8"/><use y="4.342" xlink:href="#10"/><use y="6.513" xlink:href="#4"/><use y="8.684" xlink:href="#5"/></svg><svg x="1120"><use xlink:href="#a"/><use y="0" xlink:href="#1"/><use y="2.171" xlink:href="#8"/><use y="4.342" xlink:href="#10"/><use y="6.513" xlink:href="#4"/><use y="8.684" xlink:href="#5"/><use y="10.855" xlink:href="#6"/><use y="13.026" xlink:href="#7"/></svg><svg x="1200"><use xlink:href="#a"/><use y="0" xlink:href="#1"/><use y="2.171" xlink:href="#8"/><use y="4.342" xlink:href="#10"/><use y="6.513" xlink:href="#4"/><use y="8.684" xlink:href="#5"/><use y="10.855" xlink:href="#6"/><use y="13.026" xlink:href="#7"/></svg><svg x="1280"><use xlink:href="#a"/><use y="0" xlink:href="#1"/><use y="2.171" xlink:href="#8"/><use y="4.342" xlink:href="#10"/><use y="6.513" xlink:href="#4"/><use y="8.684" xlink:href="#5"/><use y="10.855" xlink:href="#6"/><use y="13.026" xlink:href="#7"/></svg><svg x="1360"><use xlink:href="#a"/><use y="0" xlink:href="#1"/><use y="2.171" xlink:href="#8"/><use y="4.342" xlink:href="#10"/><use y="6.513" xlink:href="#4"/><use y="8.684" xlink:href="#5"/><use y="10.855" xlink:href="#6"/></svg><svg x="1440"><use xlink:href="#a"/><use y="0" xlink:href="#1"/><use y="2.171" xlink:href="#8"/><use y="4.342" xlink:href="#10"/><use y="6.513" xlink:href="#4"/></svg><svg x="1520"><use xlink:href="#a"/><use y="0" xlink:href="#1"/></svg><svg x="1600"><use xlink:href="#a"/></svg><svg x="1680"><use xlink:href="#a"/><use y="0" xlink:href="#1"/><use y="2.171" xlink:href="#8"/></svg><svg x="1760"><use xlink:href="#a"/><use y="0" xlink:href="#1"/><use y="2.171" xlink:href="#8"/><use y="4.342" xlink:href="#11"/><use y="6.513" xlink:href="#12"/><use y="8.684" xlink:href="#5"/></svg><svg x="1840"><use xlink:href="#a"/><use y="0" xlink:href="#1"/><use y="2.171" xlink:href="#8"/><use y="4.342" xlink:href="#11"/><use y="6.513" xlink:href="#12"/><use y="8.684" xlink:href="#5"/><use y="10.855" xlink:href="#6"/><use y="13.026" xlink:href="#7"/></svg><svg x="1920"><use xlink:href="#a"/><use y="0" xlink:href="#1"/><use y="2.171" xlink:href="#8"/><use y="4.342" xlink:href="#11"/><use y="6.513" xlink:href="#12"/><use y="8.684" xlink:href="#5"/><use y="10.855" xlink:href="#6"/><use y="13.026" xlink:href="#7"/></svg><svg x="2000"><use xlink:href="#a"/><use y="0" xlink:href="#1"/><use y="2.171" xlink:href="#8"/><use y="4.342" xlink:href="#11"/><use y="6.513" xlink:href="#12"/><use y="8.684" xlink:href="#5"/><use y="10.855" xlink:href="#6"/><use y="13.026" xlink:href="#7"/></svg><svg x="2080"><use xlink:href="#a"/><use y="0" xlink:href="#1"/><use y="2.171" xlink:href="#8"/><use y="4.342" xlink:href="#11"/><use y="6.513" xlink:href="#12"/><use y="8.684" xlink:href="#5"/><use y="10.855" xlink:href="#6"/><use y="13.026" xlink:href="#7"/></svg><svg x="2160"><use xlink:href="#a"/><use y="0" xlink:href="#1"/><use y="2.171" xlink:href="#8"/><use y="4.342" xlink:href="#11"/><use y="6.513" xlink:href="#12"/><use y="8.684" xlink:href="#5"/><use y="10.855" xlink:href="#6"/></svg><svg x="2240"><use xlink:href="#a"/><use y="0" xlink:href="#1"/><use y="2.171" xlink:href="#8"/><use y="4.342" xlink:href="#11"/><use y="6.513" xlink:href="#12"/><use y="8.684" xlink:href="#5"/><use y="10.855" xlink:href="#6"/></svg><svg x="2320"><use xlink:href="#a"/><use y="0" xlink:href="#1"/><use y="2.171" xlink:href="#8"/><use y="4.342" xlink:href="#11"/><use y="6.513" xlink:href="#12"/></svg><svg x="2400"><use xlink:href="#a"/><use y="0" xlink:href="#1"/><use y="2.171" xlink:href="#8"/></svg><svg x="2480"><use xlink:href="#a"/></svg><svg x="2560"><use xlink:href="#a"/><use y="0" xlink:href="#1"/></svg><svg x="2640"><use xlink:href="#a"/><use y="0" xlink:href="#1"/><use y="2.171" xlink:href="#8"/><use y="4.342" xlink:href="#11"/><use y="6.513" xlink:href="#13"/></svg><svg x="2720"><use xlink:href="#a"/><use y="0" xlink:href="#1"/><use y="2.171" xlink:href="#8"/><use y="4.342" xlink:href="#11"/><use y="6.513" xlink:href="#13"/><use y="8.684" xlink:href="#5"/><use y="10.855" xlink:href="#6"/></svg><svg x="2800"><use xlink:href="#a"/><use y="0" xlink:href="#1"/><use y="2.171" xlink:href="#8"/><use y="4.342" xlink:href="#11"/><use y="6.513" xlink:href="#13"/><use y="8.684" xlink:href="#5"/><use y="10.855" xlink:href="#6"/><use y="13.026" xlink:href="#7"/></svg><svg x="2880"><use xlink:href="#a"/><use y="0" xlink:href="#1"/><use y="2.171" xlink:href="#8"/><use y="4.342" xlink:href="#11"/><use y="6.513" xlink:href="#13"/><use y="8.684" xlink:href="#5"/><use y="10.855" xlink:href="#6"/><use y="13.026" xlink:href="#7"/></svg><svg x="2960"><use xlink:href="#a"/><use y="0" xlink:href="#1"/><use y="2.171" xlink:href="#8"/><use y="4.342" xlink:href="#11"/><use y="6.513" xlink:href="#13"/><use y="8.684" xlink:href="#5"/><use y="10.855" xlink:href="#6"/><use y="13.026" xlink:href="#7"/></svg><svg x="3040"><use xlink:href="#a"/><use y="0" xlink:href="#1"/><use y="2.171" xlink:href="#8"/><use y="4.342" xlink:href="#11"/><use y="6.513" xlink:href="#13"/><use y="8.684" xlink:href="#5"/><use y="10.855" xlink:href="#6"/></svg><svg x="3120"><use xlink:href="#a"/><use y="0" xlink:href="#1"/><use y="2.171" xlink:href="#8"/><use y="4.342" xlink:href="#11"/><use y="6.513" xlink:href="#13"/></svg><svg x="3200"><use xlink:href="#a"/><use y="0" xlink:href="#1"/></svg><svg x="3280"><use xlink:href="#a"/></svg><svg x="3360"><use xlink:href="#a"/><use y="0" xlink:href="#1"/><use y="2.171" xlink:href="#14"/></svg><svg x="3440"><use xlink:href="#a"/><use x="-.004" y="8.659" xlink:href="#b"/><use y="0" xlink:href="#1"/><use y="2.171" xlink:href="#14"/><use y="4.342" xlink:href="#15"/></svg><svg x="3520"><use xlink:href="#a"/><use x="43.996" y="8.659" xlink:href="#b"/><use y="0" xlink:href="#1"/><use y="2.171" xlink:href="#14"/><use y="4.342" xlink:href="#15"/><use y="8.684" xlink:href="#16"/></svg><svg x="3600"><use xlink:href="#a"/><use x="-.004" y="10.83" xlink:href="#b"/><use y="0" xlink:href="#1"/><use y="2.171" xlink:href="#14"/><use y="4.342" xlink:href="#15"/><use y="8.684" xlink:href="#16"/></svg><svg x="3680"><use xlink:href="#a"/><use x="22.996" y="15.172" xlink:href="#b"/><use y="0" xlink:href="#1"/><use y="2.171" xlink:href="#14"/><use y="4.342" xlink:href="#15"/><use y="8.684" xlink:href="#16"/><text x="0" y="14.696" class="g">Restarting</text><text x="11.022" y="14.696" class="g">animation...</text></svg></svg></g></g></svg></svg>