<svg xmlns="http://www.w3.org/2000/svg" xmlns:xlink="http://www.w3.org/1999/xlink" width="840" height="581.04"><rect width="840" height="581.04" class="a" rx="5" ry="5"/><svg x="0%" y="0%"><circle cx="20" cy="20" r="6" class="b"/><circle cx="40" cy="20" r="6" class="c"/><circle cx="60" cy="20" r="6" class="d"/></svg><svg xmlns="http://www.w3.org/2000/svg" xmlns:xlink="http://www.w3.org/1999/xlink" width="800" height="521.04" x="15" y="50" viewBox="0 0 80 52.104"><style>@keyframes k{0%{transform:translateX(0)}2.8%{transform:translateX(-80px)}3.2%{transform:translateX(-160px)}3.6%{transform:translateX(-240px)}}.e,.f,.g{font-family:&apos;Courier New&apos; Roboto,Helvetica,Arial,sans-serif,&apos;Apple Color Emoji&apos;,&apos;Segoe UI Emoji&apos;!important}.a{fill:#232323}.b{fill:#ff5f58}.c{fill:#ffbd2e}.d{fill:#18c132}.f{fill:#a0a0a0}.f,.g,.h,.i{white-space:pre}.g{fill:#00c6ff}.h{fill:#ea59f6}.i{fill:gold}.j{fill:transparent}.l{animation-duration:5.185461s;animation-iteration-count:infinite;animation-name:k;animation-timing-function:steps(1,end)}</style><g class="e" font-family="'Courier New',Monaco, Consolas, Menlo, 'Bitstream Vera Sans Mono', 'Powerline Symbols', monospace" font-size="1.67"><defs><symbol id="1"><text x="0" y="1.67" class="f">██████</text><text x="8.016" y="1.67" class="f">████████</text><text x="17.034" y="1.67" class="f">███████</text><text x="25.05" y="1.67" class="f">██████</text><text x="33.066" y="1.67" class="f">███</text><text x="40.08" y="1.67" class="f">███</text></symbol><symbol id="2"><text x="0" y="1.67" class="f">██</text><text x="5.01" y="1.67" class="f">██</text><text x="11.022" y="1.67" class="f">██</text><text x="17.034" y="1.67" class="f">██</text><text x="25.05" y="1.67" class="f">██</text><text x="30.06" y="1.67" class="f">██</text><text x="33.066" y="1.67" class="f">████</text><text x="39.078" y="1.67" class="f">████</text></symbol><symbol id="3"><text x="0" y="1.67" class="f">██████</text><text x="11.022" y="1.67" class="f">██</text><text x="17.034" y="1.67" class="f">█████</text><text x="25.05" y="1.67" class="f">██████</text><text x="33.066" y="1.67" class="f">██</text><text x="36.072" y="1.67" class="f">████</text><text x="41.082" y="1.67" class="f">██</text></symbol><symbol id="4"><text x="0" y="1.67" class="f">██</text><text x="11.022" y="1.67" class="f">██</text><text x="17.034" y="1.67" class="f">██</text><text x="25.05" y="1.67" class="f">██</text><text x="30.06" y="1.67" class="f">██</text><text x="33.066" y="1.67" class="f">██</text><text x="37.074" y="1.67" class="f">██</text><text x="41.082" y="1.67" class="f">██</text></symbol><symbol id="5"><text x="0" y="1.67" class="f">██</text><text x="11.022" y="1.67" class="f">██</text><text x="17.034" y="1.67" class="f">███████</text><text x="25.05" y="1.67" class="f">██</text><text x="30.06" y="1.67" class="f">██</text><text x="33.066" y="1.67" class="f">██</text><text x="41.082" y="1.67" class="f">██</text></symbol><symbol id="6"><text x="0" y="1.67" class="g">██████</text><text x="8.016" y="1.67" class="h">████████</text><text x="17.034" y="1.67" class="h">███████</text><text x="25.05" y="1.67" class="h">██████</text><text x="33.066" y="1.67" class="h">███</text><text x="40.08" y="1.67" class="h">███</text></symbol><symbol id="7"><text x="0" y="1.67" class="g">██</text><text x="5.01" y="1.67" class="g">██</text><text x="11.022" y="1.67" class="h">██</text><text x="17.034" y="1.67" class="h">██</text><text x="25.05" y="1.67" class="h">██</text><text x="30.06" y="1.67" class="h">██</text><text x="33.066" y="1.67" class="h">████</text><text x="39.078" y="1.67" class="h">████</text></symbol><symbol id="8"><text x="0" y="1.67" class="g">██████</text><text x="11.022" y="1.67" class="h">██</text><text x="17.034" y="1.67" class="h">█████</text><text x="25.05" y="1.67" class="h">██████</text><text x="33.066" y="1.67" class="h">██</text><text x="36.072" y="1.67" class="h">████</text><text x="41.082" y="1.67" class="h">██</text></symbol><symbol id="9"><text x="0" y="1.67" class="g">██</text><text x="11.022" y="1.67" class="h">██</text><text x="17.034" y="1.67" class="h">██</text><text x="25.05" y="1.67" class="h">██</text><text x="30.06" y="1.67" class="h">██</text><text x="33.066" y="1.67" class="h">██</text><text x="37.074" y="1.67" class="h">██</text><text x="41.082" y="1.67" class="h">██</text></symbol><symbol id="10"><text x="0" y="1.67" class="g">██</text><text x="11.022" y="1.67" class="h">██</text><text x="17.034" y="1.67" class="h">███████</text><text x="25.05" y="1.67" class="h">██</text><text x="30.06" y="1.67" class="h">██</text><text x="33.066" y="1.67" class="h">██</text><text x="41.082" y="1.67" class="h">██</text></symbol><symbol id="11"><text x="0" y="1.67" class="i">██████</text><text x="8.016" y="1.67" class="i">████████</text><text x="17.034" y="1.67" class="i">███████</text><text x="25.05" y="1.67" class="i">██████</text><text x="33.066" y="1.67" class="i">███</text><text x="40.08" y="1.67" class="i">███</text></symbol><symbol id="12"><text x="0" y="1.67" class="i">██</text><text x="5.01" y="1.67" class="i">██</text><text x="11.022" y="1.67" class="i">██</text><text x="17.034" y="1.67" class="i">██</text><text x="25.05" y="1.67" class="i">██</text><text x="30.06" y="1.67" class="i">██</text><text x="33.066" y="1.67" class="i">████</text><text x="39.078" y="1.67" class="i">████</text></symbol><symbol id="13"><text x="0" y="1.67" class="i">██████</text><text x="11.022" y="1.67" class="i">██</text><text x="17.034" y="1.67" class="i">█████</text><text x="25.05" y="1.67" class="i">██████</text><text x="33.066" y="1.67" class="i">██</text><text x="36.072" y="1.67" class="i">████</text><text x="41.082" y="1.67" class="i">██</text></symbol><symbol id="14"><text x="0" y="1.67" class="i">██</text><text x="11.022" y="1.67" class="i">██</text><text x="17.034" y="1.67" class="i">██</text><text x="25.05" y="1.67" class="i">██</text><text x="30.06" y="1.67" class="i">██</text><text x="33.066" y="1.67" class="i">██</text><text x="37.074" y="1.67" class="i">██</text><text x="41.082" y="1.67" class="i">██</text></symbol><symbol id="15"><text x="0" y="1.67" class="i">██</text><text x="11.022" y="1.67" class="i">██</text><text x="17.034" y="1.67" class="i">███████</text><text x="25.05" y="1.67" class="i">██</text><text x="30.06" y="1.67" class="i">██</text><text x="33.066" y="1.67" class="i">██</text><text x="41.082" y="1.67" class="i">██</text></symbol><symbol id="a"><rect width="80" height="24" x="0" y="0" class="j"/></symbol></defs><rect width="80" height="52.104" class="a"/><g class="l"><svg width="400" x="0" y="0"><svg x="0"><use xlink:href="#a"/></svg><svg x="80"><use xlink:href="#a"/><use y="0" xlink:href="#1"/><use y="2.171" xlink:href="#2"/><use y="4.342" xlink:href="#3"/><use y="6.513" xlink:href="#4"/><use y="8.684" xlink:href="#5"/></svg><svg x="160"><use xlink:href="#a"/><use y="0" xlink:href="#1"/><use y="2.171" xlink:href="#2"/><use y="4.342" xlink:href="#3"/><use y="6.513" xlink:href="#4"/><use y="8.684" xlink:href="#5"/><use y="13.026" xlink:href="#6"/><use y="15.197" xlink:href="#7"/><use y="17.368" xlink:href="#8"/><use y="19.539" xlink:href="#9"/><use y="21.71" xlink:href="#10"/></svg><svg x="240"><use xlink:href="#a"/><use y="0" xlink:href="#1"/><use y="2.171" xlink:href="#2"/><use y="4.342" xlink:href="#3"/><use y="6.513" xlink:href="#4"/><use y="8.684" xlink:href="#5"/><use y="13.026" xlink:href="#6"/><use y="15.197" xlink:href="#7"/><use y="17.368" xlink:href="#8"/><use y="19.539" xlink:href="#9"/><use y="21.71" xlink:href="#10"/><use y="26.052" xlink:href="#11"/><use y="28.223" xlink:href="#12"/><use y="30.394" xlink:href="#13"/><use y="32.565" xlink:href="#14"/><use y="34.736" xlink:href="#15"/></svg><svg x="320"><use xlink:href="#a"/><use y="0" xlink:href="#1"/><use y="2.171" xlink:href="#2"/><use y="4.342" xlink:href="#3"/><use y="6.513" xlink:href="#4"/><use y="8.684" xlink:href="#5"/><use y="13.026" xlink:href="#6"/><use y="15.197" xlink:href="#7"/><use y="17.368" xlink:href="#8"/><use y="19.539" xlink:href="#9"/><use y="21.71" xlink:href="#10"/><use y="26.052" xlink:href="#11"/><use y="28.223" xlink:href="#12"/><use y="30.394" xlink:href="#13"/><use y="32.565" xlink:href="#14"/><use y="34.736" xlink:href="#15"/><text x="0" y="42.919" class="f">Restarting</text><text x="11.022" y="42.919" class="f">animation...</text></svg></svg></g></g></svg></svg>