<svg xmlns="http://www.w3.org/2000/svg" xmlns:xlink="http://www.w3.org/1999/xlink" width="840" height="581.04"><rect width="840" height="581.04" class="a" rx="5" ry="5"/><svg x="0%" y="0%"><circle cx="20" cy="20" r="6" class="b"/><circle cx="40" cy="20" r="6" class="c"/><circle cx="60" cy="20" r="6" class="d"/></svg><svg xmlns="http://www.w3.org/2000/svg" xmlns:xlink="http://www.w3.org/1999/xlink" width="800" height="521.04" x="15" y="50" viewBox="0 0 80 52.104"><style>@keyframes k{0%{transform:translateX(0)}1.6%{transform:translateX(-80px)}1.9%{transform:translateX(-160px)}}.e,.f,.g{font-family:&apos;Courier New&apos; Roboto,Helvetica,Arial,sans-serif,&apos;Apple Color Emoji&apos;,&apos;Segoe UI Emoji&apos;!important}.a{fill:#232323}.b{fill:#ff5f58}.c{fill:#ffbd2e}.d{fill:#18c132}.f,.g{fill:#b22cc7;white-space:pre}.g{fill:#0fc7d1}.h{fill:#c9901e}.i{fill:#a0a0a0;white-space:pre}.j{fill:transparent}.l{animation-duration:5.099099s;animation-iteration-count:infinite;animation-name:k;animation-timing-function:steps(1,end)}</style><g class="e" font-family="'Courier New',Monaco, Consolas, Menlo, 'Bitstream Vera Sans Mono', 'Powerline Symbols', monospace" font-size="1.67"><defs><symbol id="1"><text x="0" y="1.67" class="f">This</text><text x="5.01" y="1.67" class="f">text</text><text x="10.02" y="1.67" class="f">is</text><text x="13.026" y="1.67" class="f">printed</text><text x="21.042" y="1.67" class="f">with</text><text x="26.052" y="1.67" class="f">a</text><text x="28.056" y="1.67" class="f">custom</text><text x="35.07" y="1.67" class="f">RGB!</text></symbol><symbol id="2"><text x="0" y="1.67" class="g">This</text><text x="5.01" y="1.67" class="g">text</text><text x="10.02" y="1.67" class="g">is</text><text x="13.026" y="1.67" class="g">printed</text><text x="21.042" y="1.67" class="g">with</text><text x="26.052" y="1.67" class="g">a</text><text x="28.056" y="1.67" class="g">custom</text><text x="35.07" y="1.67" class="g">RGB!</text></symbol><symbol id="3"><rect width="50" height="2.171" x="0" y="0" class="h"/><text x="0" y="1.67" class="i">This text is printed with a custom RGB background!</text></symbol><symbol id="a"><rect width="80" height="24" x="0" y="0" class="j"/></symbol></defs><rect width="80" height="52.104" class="a"/><g class="l"><svg width="320" x="0" y="0"><svg x="0"><use xlink:href="#a"/></svg><svg x="80"><use xlink:href="#a"/><use y="0" xlink:href="#1"/><use y="2.171" xlink:href="#2"/><use y="4.342" xlink:href="#3"/></svg><svg x="160"><use xlink:href="#a"/><use y="0" xlink:href="#1"/><use y="2.171" xlink:href="#2"/><use y="4.342" xlink:href="#3"/></svg><svg x="240"><use xlink:href="#a"/><use y="0" xlink:href="#1"/><use y="2.171" xlink:href="#2"/><use y="4.342" xlink:href="#3"/><text x="0" y="10.354" class="i">Restarting</text><text x="11.022" y="10.354" class="i">animation...</text></svg></svg></g></g></svg></svg>