<svg xmlns="http://www.w3.org/2000/svg" xmlns:xlink="http://www.w3.org/1999/xlink" width="840" height="581.04"><rect width="840" height="581.04" class="a" rx="5" ry="5"/><svg x="0%" y="0%"><circle cx="20" cy="20" r="6" class="b"/><circle cx="40" cy="20" r="6" class="c"/><circle cx="60" cy="20" r="6" class="d"/></svg><svg xmlns="http://www.w3.org/2000/svg" xmlns:xlink="http://www.w3.org/1999/xlink" width="800" height="521.04" x="15" y="50" viewBox="0 0 80 52.104"><style>@keyframes k{0%{transform:translateX(0)}2.2%{transform:translateX(-80px)}3.7%{transform:translateX(-1600px)}3.8%{transform:translateX(-2560px)}4.3%{transform:translateX(-2640px)}4.5%{transform:translateX(-3440px)}4.6%{transform:translateX(-3600px)}}.e,.f,.g{font-family:&apos;Courier New&apos; Roboto,Helvetica,Arial,sans-serif,&apos;Apple Color Emoji&apos;,&apos;Segoe UI Emoji&apos;!important}.a{fill:#232323}.b{fill:#ff5f58}.c{fill:#ffbd2e}.d{fill:#18c132}.f{fill:#a0a0a0}.f,.g,.h,.i{white-space:pre}.g{fill:#fff100;font-weight:700}.h{fill:#00c6ff}.i{fill:#7ee7e9}.j{fill:transparent}.l{animation-duration:5.239235s;animation-iteration-count:infinite;animation-name:k;animation-timing-function:steps(1,end)}</style><g class="e" font-family="'Courier New',Monaco, Consolas, Menlo, 'Bitstream Vera Sans Mono', 'Powerline Symbols', monospace" font-size="1.67"><defs><symbol id="1"><text x="0" y="1.67" class="f">#</text><text x="2.004" y="1.67" class="g">Chart</text><text x="8.016" y="1.67" class="g">example</text><text x="16.032" y="1.67" class="g">with</text><text x="21.042" y="1.67" class="g">mixed</text><text x="27.054" y="1.67" class="g">values</text><text x="34.068" y="1.67" class="g">(note</text><text x="40.08" y="1.67" class="g">screen</text><text x="47.094" y="1.67" class="g">space</text><text x="53.106" y="1.67" class="g">usage</text><text x="59.118" y="1.67" class="g">in</text><text x="62.124" y="1.67" class="g">case</text><text x="67.134" y="1.67" class="g">when</text><text x="72.144" y="1.67" class="g">ABSOLUTE</text></symbol><symbol id="2"><text x="1.002" y="1.67" class="g">values</text><text x="8.016" y="1.67" class="g">of</text><text x="11.022" y="1.67" class="g">negative</text><text x="20.04" y="1.67" class="g">and</text><text x="24.048" y="1.67" class="g">positive</text><text x="33.066" y="1.67" class="g">parts</text><text x="39.078" y="1.67" class="g">are</text><text x="43.086" y="1.67" class="g">differ</text><text x="50.1" y="1.67" class="g">too</text><text x="54.108" y="1.67" class="g">much)</text></symbol><symbol id="3"><text x="2.004" y="1.67" class="f">2</text><text x="23.046" y="1.67" class="f">5</text><text x="34.068" y="1.67" class="f">7</text></symbol><symbol id="4"><text x="34.068" y="1.67" class="h">██</text></symbol><symbol id="5"><text x="23.046" y="1.67" class="h">██</text><text x="34.068" y="1.67" class="h">██</text></symbol><symbol id="6"><text x="2.004" y="1.67" class="h">██</text><text x="23.046" y="1.67" class="h">██</text><text x="34.068" y="1.67" class="h">██</text></symbol><symbol id="7"><text x="9.018" y="1.67" class="h">██</text><text x="16.032" y="1.67" class="h">██</text></symbol><symbol id="8"><text x="9.018" y="1.67" class="h">██</text></symbol><symbol id="9"><text x="9.018" y="1.67" class="f">-3</text><text x="16.032" y="1.67" class="f">-2</text></symbol><symbol id="10"><text x="0" y="1.67" class="i">Bar</text><text x="4.008" y="1.67" class="i">1</text><text x="7.014" y="1.67" class="i">Bar</text><text x="11.022" y="1.67" class="i">2</text><text x="14.028" y="1.67" class="i">Bar</text><text x="18.036" y="1.67" class="i">3</text><text x="21.042" y="1.67" class="i">Bar</text><text x="25.05" y="1.67" class="i">4</text><text x="28.056" y="1.67" class="i">Longer</text><text x="35.07" y="1.67" class="i">Label</text></symbol><symbol id="11"><text x="0" y="1.67" class="i">Bar</text><text x="4.008" y="1.67" class="i">1</text><text x="24.048" y="1.67" class="h">███████</text><text x="52.104" y="1.67" class="f">2</text></symbol><symbol id="12"><text x="0" y="1.67" class="i">Bar</text><text x="4.008" y="1.67" class="i">2</text><text x="13.026" y="1.67" class="h">███████████</text><text x="51.102" y="1.67" class="f">-3</text></symbol><symbol id="13"><text x="0" y="1.67" class="i">Bar</text><text x="4.008" y="1.67" class="i">3</text><text x="17.034" y="1.67" class="h">███████</text><text x="51.102" y="1.67" class="f">-2</text></symbol><symbol id="14"><text x="0" y="1.67" class="i">Bar</text><text x="4.008" y="1.67" class="i">4</text><text x="24.048" y="1.67" class="h">██████████████████</text><text x="52.104" y="1.67" class="f">5</text></symbol><symbol id="15"><text x="0" y="1.67" class="i">Longer</text><text x="7.014" y="1.67" class="i">Label</text><text x="24.048" y="1.67" class="h">██████████████████████████</text><text x="52.104" y="1.67" class="f">7</text></symbol><symbol id="a"><rect width="80" height="24" x="0" y="0" class="j"/></symbol></defs><rect width="80" height="52.104" class="a"/><g class="l"><svg width="3760" x="0" y="0"><svg x="0"><use xlink:href="#a"/></svg><svg x="80"><use xlink:href="#a"/><use y="2.171" xlink:href="#1"/><use y="4.342" xlink:href="#2"/></svg><svg x="160"><use xlink:href="#a"/><use y="2.171" xlink:href="#1"/><use y="4.342" xlink:href="#2"/><use y="8.684" xlink:href="#3"/></svg><svg x="240"><use xlink:href="#a"/><use y="2.171" xlink:href="#1"/><use y="4.342" xlink:href="#2"/><use y="8.684" xlink:href="#3"/></svg><svg x="320"><use xlink:href="#a"/><use y="2.171" xlink:href="#1"/><use y="4.342" xlink:href="#2"/><use y="8.684" xlink:href="#3"/><use y="10.855" xlink:href="#4"/></svg><svg x="400"><use xlink:href="#a"/><use y="2.171" xlink:href="#1"/><use y="4.342" xlink:href="#2"/><use y="8.684" xlink:href="#3"/><use y="10.855" xlink:href="#4"/></svg><svg x="480"><use xlink:href="#a"/><use y="2.171" xlink:href="#1"/><use y="4.342" xlink:href="#2"/><use y="8.684" xlink:href="#3"/><use y="10.855" xlink:href="#4"/><use y="13.026" xlink:href="#4"/></svg><svg x="560"><use xlink:href="#a"/><use y="2.171" xlink:href="#1"/><use y="4.342" xlink:href="#2"/><use y="8.684" xlink:href="#3"/><use y="10.855" xlink:href="#4"/><use y="13.026" xlink:href="#4"/></svg><svg x="640"><use xlink:href="#a"/><use y="2.171" xlink:href="#1"/><use y="4.342" xlink:href="#2"/><use y="8.684" xlink:href="#3"/><use y="10.855" xlink:href="#4"/><use y="13.026" xlink:href="#4"/><use y="15.197" xlink:href="#4"/></svg><svg x="720"><use xlink:href="#a"/><use y="2.171" xlink:href="#1"/><use y="4.342" xlink:href="#2"/><use y="8.684" xlink:href="#3"/><use y="10.855" xlink:href="#4"/><use y="13.026" xlink:href="#4"/><use y="15.197" xlink:href="#4"/></svg><svg x="800"><use xlink:href="#a"/><use y="2.171" xlink:href="#1"/><use y="4.342" xlink:href="#2"/><use y="8.684" xlink:href="#3"/><use y="10.855" xlink:href="#4"/><use y="13.026" xlink:href="#4"/><use y="15.197" xlink:href="#4"/><use y="17.368" xlink:href="#5"/></svg><svg x="880"><use xlink:href="#a"/><use y="2.171" xlink:href="#1"/><use y="4.342" xlink:href="#2"/><use y="8.684" xlink:href="#3"/><use y="10.855" xlink:href="#4"/><use y="13.026" xlink:href="#4"/><use y="15.197" xlink:href="#4"/><use y="17.368" xlink:href="#5"/></svg><svg x="960"><use xlink:href="#a"/><use y="2.171" xlink:href="#1"/><use y="4.342" xlink:href="#2"/><use y="8.684" xlink:href="#3"/><use y="10.855" xlink:href="#4"/><use y="13.026" xlink:href="#4"/><use y="15.197" xlink:href="#4"/><use y="17.368" xlink:href="#5"/><use y="19.539" xlink:href="#5"/></svg><svg x="1040"><use xlink:href="#a"/><use y="2.171" xlink:href="#1"/><use y="4.342" xlink:href="#2"/><use y="8.684" xlink:href="#3"/><use y="10.855" xlink:href="#4"/><use y="13.026" xlink:href="#4"/><use y="15.197" xlink:href="#4"/><use y="17.368" xlink:href="#5"/><use y="19.539" xlink:href="#5"/></svg><svg x="1120"><use xlink:href="#a"/><use y="2.171" xlink:href="#1"/><use y="4.342" xlink:href="#2"/><use y="8.684" xlink:href="#3"/><use y="10.855" xlink:href="#4"/><use y="13.026" xlink:href="#4"/><use y="15.197" xlink:href="#4"/><use y="17.368" xlink:href="#5"/><use y="19.539" xlink:href="#5"/><use y="21.71" xlink:href="#5"/></svg><svg x="1200"><use xlink:href="#a"/><use y="2.171" xlink:href="#1"/><use y="4.342" xlink:href="#2"/><use y="8.684" xlink:href="#3"/><use y="10.855" xlink:href="#4"/><use y="13.026" xlink:href="#4"/><use y="15.197" xlink:href="#4"/><use y="17.368" xlink:href="#5"/><use y="19.539" xlink:href="#5"/><use y="21.71" xlink:href="#5"/></svg><svg x="1280"><use xlink:href="#a"/><use y="2.171" xlink:href="#1"/><use y="4.342" xlink:href="#2"/><use y="8.684" xlink:href="#3"/><use y="10.855" xlink:href="#4"/><use y="13.026" xlink:href="#4"/><use y="15.197" xlink:href="#4"/><use y="17.368" xlink:href="#5"/><use y="19.539" xlink:href="#5"/><use y="21.71" xlink:href="#5"/><use y="23.881" xlink:href="#6"/></svg><svg x="1360"><use xlink:href="#a"/><use y="2.171" xlink:href="#1"/><use y="4.342" xlink:href="#2"/><use y="8.684" xlink:href="#3"/><use y="10.855" xlink:href="#4"/><use y="13.026" xlink:href="#4"/><use y="15.197" xlink:href="#4"/><use y="17.368" xlink:href="#5"/><use y="19.539" xlink:href="#5"/><use y="21.71" xlink:href="#5"/><use y="23.881" xlink:href="#6"/></svg><svg x="1440"><use xlink:href="#a"/><use y="2.171" xlink:href="#1"/><use y="4.342" xlink:href="#2"/><use y="8.684" xlink:href="#3"/><use y="10.855" xlink:href="#4"/><use y="13.026" xlink:href="#4"/><use y="15.197" xlink:href="#4"/><use y="17.368" xlink:href="#5"/><use y="19.539" xlink:href="#5"/><use y="21.71" xlink:href="#5"/><use y="23.881" xlink:href="#6"/><use y="26.052" xlink:href="#6"/></svg><svg x="1520"><use xlink:href="#a"/><use y="2.171" xlink:href="#1"/><use y="4.342" xlink:href="#2"/><use y="8.684" xlink:href="#3"/><use y="10.855" xlink:href="#4"/><use y="13.026" xlink:href="#4"/><use y="15.197" xlink:href="#4"/><use y="17.368" xlink:href="#5"/><use y="19.539" xlink:href="#5"/><use y="21.71" xlink:href="#5"/><use y="23.881" xlink:href="#6"/><use y="26.052" xlink:href="#6"/></svg><svg x="1600"><use xlink:href="#a"/><use y="2.171" xlink:href="#1"/><use y="4.342" xlink:href="#2"/><use y="8.684" xlink:href="#3"/><use y="10.855" xlink:href="#4"/><use y="13.026" xlink:href="#4"/><use y="15.197" xlink:href="#4"/><use y="17.368" xlink:href="#5"/><use y="19.539" xlink:href="#5"/><use y="21.71" xlink:href="#5"/><use y="23.881" xlink:href="#6"/><use y="26.052" xlink:href="#6"/><use y="28.223" xlink:href="#7"/></svg><svg x="1680"><use xlink:href="#a"/><use y="2.171" xlink:href="#1"/><use y="4.342" xlink:href="#2"/><use y="8.684" xlink:href="#3"/><use y="10.855" xlink:href="#4"/><use y="13.026" xlink:href="#4"/><use y="15.197" xlink:href="#4"/><use y="17.368" xlink:href="#5"/><use y="19.539" xlink:href="#5"/><use y="21.71" xlink:href="#5"/><use y="23.881" xlink:href="#6"/><use y="26.052" xlink:href="#6"/><use y="28.223" xlink:href="#7"/></svg><svg x="1760"><use xlink:href="#a"/><use y="2.171" xlink:href="#1"/><use y="4.342" xlink:href="#2"/><use y="8.684" xlink:href="#3"/><use y="10.855" xlink:href="#4"/><use y="13.026" xlink:href="#4"/><use y="15.197" xlink:href="#4"/><use y="17.368" xlink:href="#5"/><use y="19.539" xlink:href="#5"/><use y="21.71" xlink:href="#5"/><use y="23.881" xlink:href="#6"/><use y="26.052" xlink:href="#6"/><use y="28.223" xlink:href="#7"/><use y="30.394" xlink:href="#7"/></svg><svg x="1840"><use xlink:href="#a"/><use y="2.171" xlink:href="#1"/><use y="4.342" xlink:href="#2"/><use y="8.684" xlink:href="#3"/><use y="10.855" xlink:href="#4"/><use y="13.026" xlink:href="#4"/><use y="15.197" xlink:href="#4"/><use y="17.368" xlink:href="#5"/><use y="19.539" xlink:href="#5"/><use y="21.71" xlink:href="#5"/><use y="23.881" xlink:href="#6"/><use y="26.052" xlink:href="#6"/><use y="28.223" xlink:href="#7"/><use y="30.394" xlink:href="#7"/></svg><svg x="1920"><use xlink:href="#a"/><use y="2.171" xlink:href="#1"/><use y="4.342" xlink:href="#2"/><use y="8.684" xlink:href="#3"/><use y="10.855" xlink:href="#4"/><use y="13.026" xlink:href="#4"/><use y="15.197" xlink:href="#4"/><use y="17.368" xlink:href="#5"/><use y="19.539" xlink:href="#5"/><use y="21.71" xlink:href="#5"/><use y="23.881" xlink:href="#6"/><use y="26.052" xlink:href="#6"/><use y="28.223" xlink:href="#7"/><use y="30.394" xlink:href="#7"/><use y="32.565" xlink:href="#8"/></svg><svg x="2000"><use xlink:href="#a"/><use y="2.171" xlink:href="#1"/><use y="4.342" xlink:href="#2"/><use y="8.684" xlink:href="#3"/><use y="10.855" xlink:href="#4"/><use y="13.026" xlink:href="#4"/><use y="15.197" xlink:href="#4"/><use y="17.368" xlink:href="#5"/><use y="19.539" xlink:href="#5"/><use y="21.71" xlink:href="#5"/><use y="23.881" xlink:href="#6"/><use y="26.052" xlink:href="#6"/><use y="28.223" xlink:href="#7"/><use y="30.394" xlink:href="#7"/><use y="32.565" xlink:href="#8"/></svg><svg x="2080"><use xlink:href="#a"/><use y="2.171" xlink:href="#1"/><use y="4.342" xlink:href="#2"/><use y="8.684" xlink:href="#3"/><use y="10.855" xlink:href="#4"/><use y="13.026" xlink:href="#4"/><use y="15.197" xlink:href="#4"/><use y="17.368" xlink:href="#5"/><use y="19.539" xlink:href="#5"/><use y="21.71" xlink:href="#5"/><use y="23.881" xlink:href="#6"/><use y="26.052" xlink:href="#6"/><use y="28.223" xlink:href="#7"/><use y="30.394" xlink:href="#7"/><use y="32.565" xlink:href="#8"/><use y="34.736" xlink:href="#9"/></svg><svg x="2160"><use xlink:href="#a"/><use y="2.171" xlink:href="#1"/><use y="4.342" xlink:href="#2"/><use y="8.684" xlink:href="#3"/><use y="10.855" xlink:href="#4"/><use y="13.026" xlink:href="#4"/><use y="15.197" xlink:href="#4"/><use y="17.368" xlink:href="#5"/><use y="19.539" xlink:href="#5"/><use y="21.71" xlink:href="#5"/><use y="23.881" xlink:href="#6"/><use y="26.052" xlink:href="#6"/><use y="28.223" xlink:href="#7"/><use y="30.394" xlink:href="#7"/><use y="32.565" xlink:href="#8"/><use y="34.736" xlink:href="#9"/></svg><svg x="2240"><use xlink:href="#a"/><use y="2.171" xlink:href="#1"/><use y="4.342" xlink:href="#2"/><use y="8.684" xlink:href="#3"/><use y="10.855" xlink:href="#4"/><use y="13.026" xlink:href="#4"/><use y="15.197" xlink:href="#4"/><use y="17.368" xlink:href="#5"/><use y="19.539" xlink:href="#5"/><use y="21.71" xlink:href="#5"/><use y="23.881" xlink:href="#6"/><use y="26.052" xlink:href="#6"/><use y="28.223" xlink:href="#7"/><use y="30.394" xlink:href="#7"/><use y="32.565" xlink:href="#8"/><use y="34.736" xlink:href="#9"/><use y="36.907" xlink:href="#10"/></svg><svg x="2320"><use xlink:href="#a"/><use y="2.171" xlink:href="#1"/><use y="4.342" xlink:href="#2"/><use y="8.684" xlink:href="#3"/><use y="10.855" xlink:href="#4"/><use y="13.026" xlink:href="#4"/><use y="15.197" xlink:href="#4"/><use y="17.368" xlink:href="#5"/><use y="19.539" xlink:href="#5"/><use y="21.71" xlink:href="#5"/><use y="23.881" xlink:href="#6"/><use y="26.052" xlink:href="#6"/><use y="28.223" xlink:href="#7"/><use y="30.394" xlink:href="#7"/><use y="32.565" xlink:href="#8"/><use y="34.736" xlink:href="#9"/><use y="36.907" xlink:href="#10"/></svg><svg x="2400"><use xlink:href="#a"/><use y="2.171" xlink:href="#1"/><use y="4.342" xlink:href="#2"/><use y="8.684" xlink:href="#3"/><use y="10.855" xlink:href="#4"/><use y="13.026" xlink:href="#4"/><use y="15.197" xlink:href="#4"/><use y="17.368" xlink:href="#5"/><use y="19.539" xlink:href="#5"/><use y="21.71" xlink:href="#5"/><use y="23.881" xlink:href="#6"/><use y="26.052" xlink:href="#6"/><use y="28.223" xlink:href="#7"/><use y="30.394" xlink:href="#7"/><use y="32.565" xlink:href="#8"/><use y="34.736" xlink:href="#9"/><use y="36.907" xlink:href="#10"/></svg><svg x="2480"><use xlink:href="#a"/><use y="2.171" xlink:href="#1"/><use y="4.342" xlink:href="#2"/><use y="8.684" xlink:href="#3"/><use y="10.855" xlink:href="#4"/><use y="13.026" xlink:href="#4"/><use y="15.197" xlink:href="#4"/><use y="17.368" xlink:href="#5"/><use y="19.539" xlink:href="#5"/><use y="21.71" xlink:href="#5"/><use y="23.881" xlink:href="#6"/><use y="26.052" xlink:href="#6"/><use y="28.223" xlink:href="#7"/><use y="30.394" xlink:href="#7"/><use y="32.565" xlink:href="#8"/><use y="34.736" xlink:href="#9"/><use y="36.907" xlink:href="#10"/></svg><svg x="2560"><use xlink:href="#a"/><use y="2.171" xlink:href="#1"/><use y="4.342" xlink:href="#2"/><use y="8.684" xlink:href="#3"/><use y="10.855" xlink:href="#4"/><use y="13.026" xlink:href="#4"/><use y="15.197" xlink:href="#4"/><use y="17.368" xlink:href="#5"/><use y="19.539" xlink:href="#5"/><use y="21.71" xlink:href="#5"/><use y="23.881" xlink:href="#6"/><use y="26.052" xlink:href="#6"/><use y="28.223" xlink:href="#7"/><use y="30.394" xlink:href="#7"/><use y="32.565" xlink:href="#8"/><use y="34.736" xlink:href="#9"/><use y="36.907" xlink:href="#10"/></svg><svg x="2640"><use xlink:href="#a"/><use y="2.171" xlink:href="#1"/><use y="4.342" xlink:href="#2"/><use y="8.684" xlink:href="#3"/><use y="10.855" xlink:href="#4"/><use y="13.026" xlink:href="#4"/><use y="15.197" xlink:href="#4"/><use y="17.368" xlink:href="#5"/><use y="19.539" xlink:href="#5"/><use y="21.71" xlink:href="#5"/><use y="23.881" xlink:href="#6"/><use y="26.052" xlink:href="#6"/><use y="28.223" xlink:href="#7"/><use y="30.394" xlink:href="#7"/><use y="32.565" xlink:href="#8"/><use y="34.736" xlink:href="#9"/><use y="36.907" xlink:href="#10"/></svg><svg x="2720"><use xlink:href="#a"/><use y="2.171" xlink:href="#1"/><use y="4.342" xlink:href="#2"/><use y="8.684" xlink:href="#3"/><use y="10.855" xlink:href="#4"/><use y="13.026" xlink:href="#4"/><use y="15.197" xlink:href="#4"/><use y="17.368" xlink:href="#5"/><use y="19.539" xlink:href="#5"/><use y="21.71" xlink:href="#5"/><use y="23.881" xlink:href="#6"/><use y="26.052" xlink:href="#6"/><use y="28.223" xlink:href="#7"/><use y="30.394" xlink:href="#7"/><use y="32.565" xlink:href="#8"/><use y="34.736" xlink:href="#9"/><use y="36.907" xlink:href="#10"/></svg><svg x="2800"><use xlink:href="#a"/><use y="2.171" xlink:href="#1"/><use y="4.342" xlink:href="#2"/><use y="8.684" xlink:href="#3"/><use y="10.855" xlink:href="#4"/><use y="13.026" xlink:href="#4"/><use y="15.197" xlink:href="#4"/><use y="17.368" xlink:href="#5"/><use y="19.539" xlink:href="#5"/><use y="21.71" xlink:href="#5"/><use y="23.881" xlink:href="#6"/><use y="26.052" xlink:href="#6"/><use y="28.223" xlink:href="#7"/><use y="30.394" xlink:href="#7"/><use y="32.565" xlink:href="#8"/><use y="34.736" xlink:href="#9"/><use y="36.907" xlink:href="#10"/><use y="45.591" xlink:href="#11"/></svg><svg x="2880"><use xlink:href="#a"/><use y="2.171" xlink:href="#1"/><use y="4.342" xlink:href="#2"/><use y="8.684" xlink:href="#3"/><use y="10.855" xlink:href="#4"/><use y="13.026" xlink:href="#4"/><use y="15.197" xlink:href="#4"/><use y="17.368" xlink:href="#5"/><use y="19.539" xlink:href="#5"/><use y="21.71" xlink:href="#5"/><use y="23.881" xlink:href="#6"/><use y="26.052" xlink:href="#6"/><use y="28.223" xlink:href="#7"/><use y="30.394" xlink:href="#7"/><use y="32.565" xlink:href="#8"/><use y="34.736" xlink:href="#9"/><use y="36.907" xlink:href="#10"/><use y="45.591" xlink:href="#11"/></svg><svg x="2960"><use xlink:href="#a"/><use y="2.171" xlink:href="#1"/><use y="4.342" xlink:href="#2"/><use y="8.684" xlink:href="#3"/><use y="10.855" xlink:href="#4"/><use y="13.026" xlink:href="#4"/><use y="15.197" xlink:href="#4"/><use y="17.368" xlink:href="#5"/><use y="19.539" xlink:href="#5"/><use y="21.71" xlink:href="#5"/><use y="23.881" xlink:href="#6"/><use y="26.052" xlink:href="#6"/><use y="28.223" xlink:href="#7"/><use y="30.394" xlink:href="#7"/><use y="32.565" xlink:href="#8"/><use y="34.736" xlink:href="#9"/><use y="36.907" xlink:href="#10"/><use y="45.591" xlink:href="#11"/><use y="47.762" xlink:href="#12"/></svg><svg x="3040"><use xlink:href="#a"/><use y="2.171" xlink:href="#1"/><use y="4.342" xlink:href="#2"/><use y="8.684" xlink:href="#3"/><use y="10.855" xlink:href="#4"/><use y="13.026" xlink:href="#4"/><use y="15.197" xlink:href="#4"/><use y="17.368" xlink:href="#5"/><use y="19.539" xlink:href="#5"/><use y="21.71" xlink:href="#5"/><use y="23.881" xlink:href="#6"/><use y="26.052" xlink:href="#6"/><use y="28.223" xlink:href="#7"/><use y="30.394" xlink:href="#7"/><use y="32.565" xlink:href="#8"/><use y="34.736" xlink:href="#9"/><use y="36.907" xlink:href="#10"/><use y="45.591" xlink:href="#11"/><use y="47.762" xlink:href="#12"/></svg><svg x="3120"><use xlink:href="#a"/><use y="2.171" xlink:href="#1"/><use y="4.342" xlink:href="#2"/><use y="8.684" xlink:href="#3"/><use y="10.855" xlink:href="#4"/><use y="13.026" xlink:href="#4"/><use y="15.197" xlink:href="#4"/><use y="17.368" xlink:href="#5"/><use y="19.539" xlink:href="#5"/><use y="21.71" xlink:href="#5"/><use y="23.881" xlink:href="#6"/><use y="26.052" xlink:href="#6"/><use y="28.223" xlink:href="#7"/><use y="30.394" xlink:href="#7"/><use y="32.565" xlink:href="#8"/><use y="34.736" xlink:href="#9"/><use y="36.907" xlink:href="#10"/><use y="45.591" xlink:href="#11"/><use y="47.762" xlink:href="#12"/><use y="49.933" xlink:href="#13"/></svg><svg x="3200"><use xlink:href="#a"/><use y="0" xlink:href="#1"/><use y="2.171" xlink:href="#2"/><use y="6.513" xlink:href="#3"/><use y="8.684" xlink:href="#4"/><use y="10.855" xlink:href="#4"/><use y="13.026" xlink:href="#4"/><use y="15.197" xlink:href="#5"/><use y="17.368" xlink:href="#5"/><use y="19.539" xlink:href="#5"/><use y="21.71" xlink:href="#6"/><use y="23.881" xlink:href="#6"/><use y="26.052" xlink:href="#7"/><use y="28.223" xlink:href="#7"/><use y="30.394" xlink:href="#8"/><use y="32.565" xlink:href="#9"/><use y="34.736" xlink:href="#10"/><use y="43.42" xlink:href="#11"/><use y="45.591" xlink:href="#12"/><use y="47.762" xlink:href="#13"/></svg><svg x="3280"><use xlink:href="#a"/><use y="0" xlink:href="#1"/><use y="2.171" xlink:href="#2"/><use y="6.513" xlink:href="#3"/><use y="8.684" xlink:href="#4"/><use y="10.855" xlink:href="#4"/><use y="13.026" xlink:href="#4"/><use y="15.197" xlink:href="#5"/><use y="17.368" xlink:href="#5"/><use y="19.539" xlink:href="#5"/><use y="21.71" xlink:href="#6"/><use y="23.881" xlink:href="#6"/><use y="26.052" xlink:href="#7"/><use y="28.223" xlink:href="#7"/><use y="30.394" xlink:href="#8"/><use y="32.565" xlink:href="#9"/><use y="34.736" xlink:href="#10"/><use y="43.42" xlink:href="#11"/><use y="45.591" xlink:href="#12"/><use y="47.762" xlink:href="#13"/><use y="49.933" xlink:href="#14"/></svg><svg x="3360"><use xlink:href="#a"/><use y="0" xlink:href="#2"/><use y="4.342" xlink:href="#3"/><use y="6.513" xlink:href="#4"/><use y="8.684" xlink:href="#4"/><use y="10.855" xlink:href="#4"/><use y="13.026" xlink:href="#5"/><use y="15.197" xlink:href="#5"/><use y="17.368" xlink:href="#5"/><use y="19.539" xlink:href="#6"/><use y="21.71" xlink:href="#6"/><use y="23.881" xlink:href="#7"/><use y="26.052" xlink:href="#7"/><use y="28.223" xlink:href="#8"/><use y="30.394" xlink:href="#9"/><use y="32.565" xlink:href="#10"/><use y="41.249" xlink:href="#11"/><use y="43.42" xlink:href="#12"/><use y="45.591" xlink:href="#13"/><use y="47.762" xlink:href="#14"/></svg><svg x="3440"><use xlink:href="#a"/><use y="0" xlink:href="#2"/><use y="4.342" xlink:href="#3"/><use y="6.513" xlink:href="#4"/><use y="8.684" xlink:href="#4"/><use y="10.855" xlink:href="#4"/><use y="13.026" xlink:href="#5"/><use y="15.197" xlink:href="#5"/><use y="17.368" xlink:href="#5"/><use y="19.539" xlink:href="#6"/><use y="21.71" xlink:href="#6"/><use y="23.881" xlink:href="#7"/><use y="26.052" xlink:href="#7"/><use y="28.223" xlink:href="#8"/><use y="30.394" xlink:href="#9"/><use y="32.565" xlink:href="#10"/><use y="41.249" xlink:href="#11"/><use y="43.42" xlink:href="#12"/><use y="45.591" xlink:href="#13"/><use y="47.762" xlink:href="#14"/><use y="49.933" xlink:href="#15"/></svg><svg x="3520"><use xlink:href="#a"/><use y="2.171" xlink:href="#3"/><use y="4.342" xlink:href="#4"/><use y="6.513" xlink:href="#4"/><use y="8.684" xlink:href="#4"/><use y="10.855" xlink:href="#5"/><use y="13.026" xlink:href="#5"/><use y="15.197" xlink:href="#5"/><use y="17.368" xlink:href="#6"/><use y="19.539" xlink:href="#6"/><use y="21.71" xlink:href="#7"/><use y="23.881" xlink:href="#7"/><use y="26.052" xlink:href="#8"/><use y="28.223" xlink:href="#9"/><use y="30.394" xlink:href="#10"/><use y="39.078" xlink:href="#11"/><use y="41.249" xlink:href="#12"/><use y="43.42" xlink:href="#13"/><use y="45.591" xlink:href="#14"/><use y="47.762" xlink:href="#15"/></svg><svg x="3600"><use xlink:href="#a"/><use y="0" xlink:href="#3"/><use y="2.171" xlink:href="#4"/><use y="4.342" xlink:href="#4"/><use y="6.513" xlink:href="#4"/><use y="8.684" xlink:href="#5"/><use y="10.855" xlink:href="#5"/><use y="13.026" xlink:href="#5"/><use y="15.197" xlink:href="#6"/><use y="17.368" xlink:href="#6"/><use y="19.539" xlink:href="#7"/><use y="21.71" xlink:href="#7"/><use y="23.881" xlink:href="#8"/><use y="26.052" xlink:href="#9"/><use y="28.223" xlink:href="#10"/><use y="36.907" xlink:href="#11"/><use y="39.078" xlink:href="#12"/><use y="41.249" xlink:href="#13"/><use y="43.42" xlink:href="#14"/><use y="45.591" xlink:href="#15"/></svg><svg x="3680"><use xlink:href="#a"/><use y="0" xlink:href="#4"/><use y="2.171" xlink:href="#4"/><use y="4.342" xlink:href="#5"/><use y="6.513" xlink:href="#5"/><use y="8.684" xlink:href="#5"/><use y="10.855" xlink:href="#6"/><use y="13.026" xlink:href="#6"/><use y="15.197" xlink:href="#7"/><use y="17.368" xlink:href="#7"/><use y="19.539" xlink:href="#8"/><use y="21.71" xlink:href="#9"/><use y="23.881" xlink:href="#10"/><use y="32.565" xlink:href="#11"/><use y="34.736" xlink:href="#12"/><use y="36.907" xlink:href="#13"/><use y="39.078" xlink:href="#14"/><use y="41.249" xlink:href="#15"/><text x="0" y="49.432" class="f">Restarting</text><text x="11.022" y="49.432" class="f">animation...</text></svg></svg></g></g></svg></svg>