<svg xmlns="http://www.w3.org/2000/svg" xmlns:xlink="http://www.w3.org/1999/xlink" width="840" height="581.04"><rect width="840" height="581.04" class="a" rx="5" ry="5"/><svg x="0%" y="0%"><circle cx="20" cy="20" r="6" class="b"/><circle cx="40" cy="20" r="6" class="c"/><circle cx="60" cy="20" r="6" class="d"/></svg><svg xmlns="http://www.w3.org/2000/svg" xmlns:xlink="http://www.w3.org/1999/xlink" width="800" height="521.04" x="15" y="50" viewBox="0 0 80 52.104"><style>@keyframes n{0%{transform:translateX(0)}1.6%{transform:translateX(-80px)}2.2%{transform:translateX(-240px)}30.2%{transform:translateX(-320px)}}.e,.f,.g{font-family:&apos;Courier New&apos; Roboto,Helvetica,Arial,sans-serif,&apos;Apple Color Emoji&apos;,&apos;Segoe UI Emoji&apos;!important}.a{fill:#232323}.b{fill:#ff5f58}.c{fill:#ffbd2e}.d{fill:#18c132}.f,.g{fill:#686868;white-space:pre}.g{fill:#00c6ff;font-weight:700}.h{fill:#a0a0a0}.h,.i,.j,.k,.l{white-space:pre}.i{fill:#0047ff}.i,.j,.k,.l{font-weight:700}.j{fill:#7cff00}.k{fill:#fff100}.l{fill:#ff0004}.m{fill:transparent}.o{animation-duration:7.16057s;animation-iteration-count:infinite;animation-name:n;animation-timing-function:steps(1,end)}</style><g class="e" font-family="'Courier New',Monaco, Consolas, Menlo, 'Bitstream Vera Sans Mono', 'Powerline Symbols', monospace" font-size="1.67"><defs><symbol id="1"><text x="0" y="1.67" class="f">2023-04-09</text><text x="11.022" y="1.67" class="f">23:11:02</text><text x="20.04" y="1.67" class="g">TRACE</text><text x="26.052" y="1.67" class="h">Doing</text><text x="32.064" y="1.67" class="h">not</text><text x="36.072" y="1.67" class="h">so</text><text x="39.078" y="1.67" class="h">important</text><text x="49.098" y="1.67" class="h">stuff</text><text x="55.11" y="1.67" class="g">priority:</text><text x="65.13" y="1.67" class="h">super</text><text x="71.142" y="1.67" class="h">low</text></symbol><symbol id="2"><text x="0" y="1.67" class="f">2023-04-09</text><text x="11.022" y="1.67" class="f">23:11:02</text><text x="20.04" y="1.67" class="i">DEBUG</text><text x="26.052" y="1.67" class="h">This</text><text x="31.062" y="1.67" class="h">might</text><text x="37.074" y="1.67" class="h">be</text><text x="40.08" y="1.67" class="h">interesting</text></symbol><symbol id="3"><text x="22.044" y="1.67" class="h">├</text><text x="24.048" y="1.67" class="i">when</text><text x="29.058" y="1.67" class="i">were</text><text x="34.068" y="1.67" class="i">crayons</text><text x="42.084" y="1.67" class="i">invented:</text><text x="52.104" y="1.67" class="h">1903</text></symbol><symbol id="4"><text x="22.044" y="1.67" class="h">├</text><text x="24.048" y="1.67" class="i">what</text><text x="29.058" y="1.67" class="i">is</text><text x="32.064" y="1.67" class="i">the</text><text x="36.072" y="1.67" class="i">meaning</text><text x="44.088" y="1.67" class="i">of</text><text x="47.094" y="1.67" class="i">life:</text><text x="53.106" y="1.67" class="h">42</text></symbol><symbol id="5"><text x="22.044" y="1.67" class="h">└</text><text x="24.048" y="1.67" class="i">is</text><text x="27.054" y="1.67" class="i">this</text><text x="32.064" y="1.67" class="i">interesting:</text><text x="45.09" y="1.67" class="h">true</text></symbol><symbol id="6"><text x="0" y="1.67" class="f">2023-04-09</text><text x="11.022" y="1.67" class="f">23:11:02</text><text x="20.04" y="1.67" class="j">INFO</text><text x="26.052" y="1.67" class="h">That</text><text x="31.062" y="1.67" class="h">was</text><text x="35.07" y="1.67" class="h">actually</text><text x="44.088" y="1.67" class="h">interesting</text><text x="56.112" y="1.67" class="j">such:</text><text x="62.124" y="1.67" class="h">wow</text></symbol><symbol id="7"><text x="0" y="1.67" class="f">2023-04-09</text><text x="11.022" y="1.67" class="f">23:11:02</text><text x="20.04" y="1.67" class="k">WARN</text><text x="26.052" y="1.67" class="h">Oh</text><text x="29.058" y="1.67" class="h">no,</text><text x="33.066" y="1.67" class="h">I</text><text x="35.07" y="1.67" class="h">see</text><text x="39.078" y="1.67" class="h">an</text><text x="42.084" y="1.67" class="h">error</text><text x="48.096" y="1.67" class="h">coming</text><text x="55.11" y="1.67" class="h">to</text><text x="58.116" y="1.67" class="h">us!</text></symbol><symbol id="8"><text x="22.044" y="1.67" class="h">├</text><text x="24.048" y="1.67" class="k">speed:</text><text x="31.062" y="1.67" class="h">88</text></symbol><symbol id="9"><text x="22.044" y="1.67" class="h">└</text><text x="24.048" y="1.67" class="k">measures:</text><text x="34.068" y="1.67" class="h">mph</text></symbol><symbol id="10"><text x="0" y="1.67" class="f">2023-04-09</text><text x="11.022" y="1.67" class="f">23:11:02</text><text x="20.04" y="1.67" class="l">ERROR</text><text x="26.052" y="1.67" class="h">Damn,</text><text x="32.064" y="1.67" class="h">here</text><text x="37.074" y="1.67" class="h">it</text><text x="40.08" y="1.67" class="h">is!</text><text x="44.088" y="1.67" class="l">error:</text><text x="51.102" y="1.67" class="h">something</text><text x="61.122" y="1.67" class="h">went</text><text x="66.132" y="1.67" class="h">wrong</text></symbol><symbol id="11"><text x="0" y="1.67" class="f">2023-04-09</text><text x="11.022" y="1.67" class="f">23:11:02</text><text x="20.04" y="1.67" class="j">INFO</text><text x="26.052" y="1.67" class="h">But</text><text x="30.06" y="1.67" class="h">what&apos;s</text><text x="37.074" y="1.67" class="h">really</text><text x="44.088" y="1.67" class="h">cool</text><text x="49.098" y="1.67" class="h">is,</text><text x="53.106" y="1.67" class="h">that</text><text x="58.116" y="1.67" class="h">you</text><text x="62.124" y="1.67" class="h">can</text><text x="66.132" y="1.67" class="h">print</text><text x="72.144" y="1.67" class="h">very</text></symbol><symbol id="12"><text x="22.044" y="1.67" class="h">│</text><text x="26.052" y="1.67" class="h">long</text><text x="31.062" y="1.67" class="h">logs,</text><text x="37.074" y="1.67" class="h">and</text><text x="41.082" y="1.67" class="h">PTerm</text><text x="47.094" y="1.67" class="h">will</text><text x="52.104" y="1.67" class="h">automatically</text><text x="66.132" y="1.67" class="h">wrap</text><text x="71.142" y="1.67" class="h">them</text><text x="76.152" y="1.67" class="h">for</text></symbol><symbol id="13"><text x="22.044" y="1.67" class="h">│</text><text x="26.052" y="1.67" class="h">you!</text><text x="31.062" y="1.67" class="h">Say</text><text x="35.07" y="1.67" class="h">goodbye</text><text x="43.086" y="1.67" class="h">to</text><text x="46.092" y="1.67" class="h">text,</text><text x="52.104" y="1.67" class="h">that</text><text x="57.114" y="1.67" class="h">has</text><text x="61.122" y="1.67" class="h">weird</text><text x="67.134" y="1.67" class="h">line</text><text x="72.144" y="1.67" class="h">breaks!</text></symbol><symbol id="14"><text x="22.044" y="1.67" class="h">└</text><text x="24.048" y="1.67" class="j">very:</text><text x="30.06" y="1.67" class="h">long</text></symbol><symbol id="15"><text x="0" y="1.67" class="f">2023-04-09</text><text x="11.022" y="1.67" class="f">23:11:04</text><text x="20.04" y="1.67" class="l">FATAL</text><text x="26.052" y="1.67" class="h">Oh</text><text x="29.058" y="1.67" class="h">no,</text><text x="33.066" y="1.67" class="h">this</text><text x="38.076" y="1.67" class="h">process</text><text x="46.092" y="1.67" class="h">is</text><text x="49.098" y="1.67" class="h">getting</text><text x="57.114" y="1.67" class="h">killed!</text><text x="65.13" y="1.67" class="l">fatal:</text><text x="72.144" y="1.67" class="h">true</text></symbol><symbol id="a"><rect width="80" height="24" x="0" y="0" class="m"/></symbol></defs><rect width="80" height="52.104" class="a"/><g class="o"><svg width="480" x="0" y="0"><svg x="0"><use xlink:href="#a"/></svg><svg x="80"><use xlink:href="#a"/><use y="0" xlink:href="#1"/></svg><svg x="160"><use xlink:href="#a"/><use y="0" xlink:href="#1"/><use y="2.171" xlink:href="#2"/><use y="4.342" xlink:href="#3"/><use y="6.513" xlink:href="#4"/><use y="8.684" xlink:href="#5"/><use y="10.855" xlink:href="#6"/><use y="13.026" xlink:href="#7"/><use y="15.197" xlink:href="#8"/><use y="17.368" xlink:href="#9"/><use y="19.539" xlink:href="#10"/><use y="21.71" xlink:href="#11"/><use y="23.881" xlink:href="#12"/><text x="22.044" y="27.722" class="h">│</text><text x="26.052" y="27.722" class="h">you!</text><text x="31.062" y="27.722" class="h">Say</text><text x="35.07" y="27.722" class="h">goodbye</text><text x="43.086" y="27.722" class="h">to</text></svg><svg x="240"><use xlink:href="#a"/><use y="0" xlink:href="#1"/><use y="2.171" xlink:href="#2"/><use y="4.342" xlink:href="#3"/><use y="6.513" xlink:href="#4"/><use y="8.684" xlink:href="#5"/><use y="10.855" xlink:href="#6"/><use y="13.026" xlink:href="#7"/><use y="15.197" xlink:href="#8"/><use y="17.368" xlink:href="#9"/><use y="19.539" xlink:href="#10"/><use y="21.71" xlink:href="#11"/><use y="23.881" xlink:href="#12"/><use y="26.052" xlink:href="#13"/><use y="28.223" xlink:href="#14"/></svg><svg x="320"><use xlink:href="#a"/><use y="0" xlink:href="#1"/><use y="2.171" xlink:href="#2"/><use y="4.342" xlink:href="#3"/><use y="6.513" xlink:href="#4"/><use y="8.684" xlink:href="#5"/><use y="10.855" xlink:href="#6"/><use y="13.026" xlink:href="#7"/><use y="15.197" xlink:href="#8"/><use y="17.368" xlink:href="#9"/><use y="19.539" xlink:href="#10"/><use y="21.71" xlink:href="#11"/><use y="23.881" xlink:href="#12"/><use y="26.052" xlink:href="#13"/><use y="28.223" xlink:href="#14"/><use y="30.394" xlink:href="#15"/></svg><svg x="400"><use xlink:href="#a"/><use y="0" xlink:href="#1"/><use y="2.171" xlink:href="#2"/><use y="4.342" xlink:href="#3"/><use y="6.513" xlink:href="#4"/><use y="8.684" xlink:href="#5"/><use y="10.855" xlink:href="#6"/><use y="13.026" xlink:href="#7"/><use y="15.197" xlink:href="#8"/><use y="17.368" xlink:href="#9"/><use y="19.539" xlink:href="#10"/><use y="21.71" xlink:href="#11"/><use y="23.881" xlink:href="#12"/><use y="26.052" xlink:href="#13"/><use y="28.223" xlink:href="#14"/><use y="30.394" xlink:href="#15"/><text x="0" y="36.406" class="h">Restarting</text><text x="11.022" y="36.406" class="h">animation...</text></svg></svg></g></g></svg></svg>