<svg xmlns="http://www.w3.org/2000/svg" xmlns:xlink="http://www.w3.org/1999/xlink" width="840" height="581.04"><rect width="840" height="581.04" class="a" rx="5" ry="5"/><svg x="0%" y="0%"><circle cx="20" cy="20" r="6" class="b"/><circle cx="40" cy="20" r="6" class="c"/><circle cx="60" cy="20" r="6" class="d"/></svg><svg xmlns="http://www.w3.org/2000/svg" xmlns:xlink="http://www.w3.org/1999/xlink" width="800" height="521.04" x="15" y="50" viewBox="0 0 80 52.104"><style>@keyframes i{0%{transform:translateX(0)}2.7%{transform:translateX(-80px)}3.4%{transform:translateX(-160px)}}.e,.f,.g{font-family:&apos;Courier New&apos; Roboto,Helvetica,Arial,sans-serif,&apos;Apple Color Emoji&apos;,&apos;Segoe UI Emoji&apos;!important}.a{fill:#232323}.b{fill:#ff5f58}.c{fill:#ffbd2e}.d{fill:#18c132}.f,.g{fill:#7ee7e9;white-space:pre}.g{fill:#00c6ff}.h{fill:transparent}.j{animation-duration:5.17658s;animation-iteration-count:infinite;animation-name:i;animation-timing-function:steps(1,end)}.k{fill:#a0a0a0;white-space:pre}</style><g class="e" font-family="'Courier New',Monaco, Consolas, Menlo, 'Bitstream Vera Sans Mono', 'Powerline Symbols', monospace" font-size="1.67"><defs><symbol id="1"><text x="0" y="1.67" class="f">A</text><text x="2.004" y="1.67" class="g">█</text></symbol><symbol id="2"><text x="0" y="1.67" class="f">B</text><text x="2.004" y="1.67" class="g">██</text></symbol><symbol id="3"><text x="0" y="1.67" class="f">C</text><text x="2.004" y="1.67" class="g">███</text></symbol><symbol id="4"><text x="0" y="1.67" class="f">D</text><text x="2.004" y="1.67" class="g">████</text></symbol><symbol id="5"><text x="0" y="1.67" class="f">E</text><text x="2.004" y="1.67" class="g">█████</text></symbol><symbol id="6"><text x="0" y="1.67" class="f">F</text><text x="2.004" y="1.67" class="g">████</text></symbol><symbol id="7"><text x="0" y="1.67" class="f">G</text><text x="2.004" y="1.67" class="g">███</text></symbol><symbol id="8"><text x="0" y="1.67" class="f">H</text><text x="2.004" y="1.67" class="g">██</text></symbol><symbol id="9"><text x="0" y="1.67" class="f">I</text><text x="2.004" y="1.67" class="g">█</text></symbol><symbol id="a"><rect width="80" height="24" x="0" y="0" class="h"/></symbol></defs><rect width="80" height="52.104" class="a"/><g class="j"><svg width="320" x="0" y="0"><svg x="0"><use xlink:href="#a"/></svg><svg x="80"><use xlink:href="#a"/></svg><svg x="160"><use xlink:href="#a"/><use y="2.171" xlink:href="#1"/><use y="4.342" xlink:href="#2"/><use y="6.513" xlink:href="#3"/><use y="8.684" xlink:href="#4"/><use y="10.855" xlink:href="#5"/><use y="13.026" xlink:href="#6"/><use y="15.197" xlink:href="#7"/><use y="17.368" xlink:href="#8"/><use y="19.539" xlink:href="#9"/></svg><svg x="240"><use xlink:href="#a"/><use y="2.171" xlink:href="#1"/><use y="4.342" xlink:href="#2"/><use y="6.513" xlink:href="#3"/><use y="8.684" xlink:href="#4"/><use y="10.855" xlink:href="#5"/><use y="13.026" xlink:href="#6"/><use y="15.197" xlink:href="#7"/><use y="17.368" xlink:href="#8"/><use y="19.539" xlink:href="#9"/><text x="0" y="27.722" class="k">Restarting</text><text x="11.022" y="27.722" class="k">animation...</text></svg></svg></g></g></svg></svg>